<?xml version="1.0" encoding="utf-8"?>
<svg version="1.1" xmlns:xlink="http://www.w3.org/1999/xlink" width="25px" height="29px" xmlns="http://www.w3.org/2000/svg">
  <g transform="matrix(1 0 0 1 -306 -214 )">
    <path d="M 0 11.598214285714285  C 0 11.229910714285715  0.30133928571428575 10.928571428571429  0.6696428571428572 11  L 24.330357142857146 11  C 24.698660714285715 10.928571428571429  25 11.229910714285715  25 11.598214285714285  L 25 26.10714285714286  C 25 27.5859375  23.800223214285715 28.785714285714285  22.321428571428573 28.785714285714285  L 2.678571428571429 28.785714285714285  C 1.1997767857142858 28.785714285714285  0 27.5859375  0 26.10714285714286  L 0 11.598214285714285  Z M 24.330357142857146 9.142857142857142  C 24.698660714285715 9.142857142857142  25 8.841517857142856  25 8.473214285714285  L 25 6.4642857142857135  C 25 4.985491071428571  23.800223214285715 3.785714285714285  22.321428571428573 3.785714285714285  L 19.642857142857142 3.785714285714285  L 19.642857142857142 0.8839285714285707  C 19.642857142857142 0.5156249999999993  19.34151785714286 0.21428571428571352  18.97321428571429 0.21428571428571352  L 16.74107142857143 0.21428571428571352  C 16.372767857142858 0.21428571428571352  16.071428571428573 0.5156249999999993  16.071428571428573 0.8839285714285707  L 16.071428571428573 3.785714285714285  L 8.928571428571429 3.785714285714285  L 8.928571428571429 0.8839285714285707  C 8.928571428571429 0.5156249999999993  8.627232142857142 0.21428571428571352  8.258928571428571 0.21428571428571352  L 6.026785714285714 0.21428571428571352  C 5.658482142857143 0.21428571428571352  5.357142857142858 0.5156249999999993  5.357142857142858 0.8839285714285707  L 5.357142857142858 3.785714285714285  L 2.678571428571429 3.785714285714285  C 1.1997767857142858 3.785714285714285  0 4.985491071428571  0 6.4642857142857135  L 0 8.473214285714285  C 0 8.841517857142856  0.30133928571428575 9.142857142857142  0.6696428571428572 9.142857142857142  L 24.330357142857146 9.142857142857142  Z " fill-rule="nonzero" fill="#ffffff" stroke="none" transform="matrix(1 0 0 1 306 214 )" />
  </g>
</svg>