<?xml version="1.0" encoding="utf-8"?>
<svg version="1.1" xmlns:xlink="http://www.w3.org/1999/xlink" width="25px" height="26px" xmlns="http://www.w3.org/2000/svg">
  <g transform="matrix(1 0 0 1 -306 -667 )">
    <path d="M 25 13.436523437500002  C 24.9755859375 5.7412109375  17.9736328125 -0.3134765625  9.9755859375 1.244140625  C 5.1220703125 2.19140625  1.2109375 6.0927734375  0.25390625 10.931640625  C -1.552734375 20.0625  6.684570312499999 26.869140624999996  12.890625 25.9072265625  C 14.90234375 25.594726562500004  15.888671874999998 23.2412109375  14.9658203125 21.4296875  C 13.837890624999998 19.212890625000004  15.449218749999998 16.625  17.939453125 16.625  L 21.8310546875 16.625  C 23.5791015625 16.625  24.9951171875 15.1796875  25 13.436523437500002  Z M 6.25 15.062500000000002  C 6.25 15.926757812499998  5.5517578125 16.625  4.6875 16.625  C 3.8232421875 16.625  3.125 15.926757812499998  3.125 15.062500000000002  C 3.125 14.198242187500002  3.8232421875 13.500000000000002  4.6875 13.500000000000002  C 5.5517578125 13.500000000000002  6.25 14.198242187500002  6.25 15.062500000000002  Z M 7.8125 8.8125  C 7.8125 9.6767578125  7.114257812499999 10.375  6.25 10.375  C 5.3857421875 10.375  4.6875 9.6767578125  4.6875 8.8125  C 4.6875 7.9482421875  5.3857421875 7.25  6.25 7.25  C 7.114257812499999 7.25  7.8125 7.9482421875  7.8125 8.8125  Z M 14.0625 5.6875  C 14.0625 6.5517578125  13.3642578125 7.25  12.5 7.25  C 11.6357421875 7.25  10.9375 6.5517578125  10.9375 5.6875  C 10.9375 4.8232421875  11.6357421875 4.125  12.5 4.125  C 13.3642578125 4.125  14.0625 4.8232421875  14.0625 5.6875  Z M 20.3125 8.8125  C 20.3125 9.6767578125  19.6142578125 10.375  18.75 10.375  C 17.8857421875 10.375  17.1875 9.6767578125  17.1875 8.8125  C 17.1875 7.9482421875  17.8857421875 7.25  18.75 7.25  C 19.6142578125 7.25  20.3125 7.9482421875  20.3125 8.8125  Z " fill-rule="nonzero" fill="#ffffff" stroke="none" transform="matrix(1 0 0 1 306 667 )" />
  </g>
</svg>