<?xml version="1.0" encoding="utf-8"?>
<svg version="1.1" xmlns:xlink="http://www.w3.org/1999/xlink" width="25px" height="25px" xmlns="http://www.w3.org/2000/svg">
  <g transform="matrix(1 0 0 1 -621 -216 )">
    <path d="M 0.7159600330033681 17.857142919375026  L 15.355468834028017 17.857142919375026  C 15.7511325803594 17.857143137187627  16.071428867031386 17.536846850515644  16.071428867031386 17.141741357706287  L 16.071428649218788 15.001674194253308  C 16.071428867031383 14.60601044792193  15.751132580359394 14.285714161249945  15.35602708755004 14.285714161249945  C 15.355841003023226 14.285714161249945  15.355654918498177 14.285714233854147  15.355468834028018 14  L 0.715960033003368 14  C 0.7157739485318536 14.285714233854147  0.7155878640095148 14.285714161249938  0.7154017794813448 14.285714161249938  C 0.3202962866719858 14.285714161249938  0 14.60601044792193  0 15.001115940731289  L 0 17.14118310418425  C 0 17.536846850515644  0.3202962866719858 17.857143137187627  0.7154017794813448 17.857143137187627  Z M 0.7154017794813448 3.571428975937685  C 0.7155878640097862 3.571428975937685  0.7157739485315822 3.571428903333479  0.7159600330033681 4  L 15.355468834028017 4  C 15.355654918500072 3.5714289033334805  15.35584100302133 3.571428975937685  15.35602708755004 3.571428975937685  C 15.7511325803594 3.571428975937685  16.071428867031386 3.251132689265699  16.071428867031386 2.85602719645634  L 16.071428649218788 0.7159600330033682  C 16.071428867031383 0.3202962866719858  15.751132580359394 0  15.35602708755004 0  L 0.715960033003368 0  C 0.3202962866719858 0  0 0.3202962866719858  0 0.7154017794813446  L 0 2.8554689429343165  C 0 3.251132689265699  0.3202962866719858 3.571428975937685  0.7154017794813448 3.571428975937685  Z M 25 8.035714433515691  C 25 7.542603054034433  24.600254244403143 7.14285729843757  24.10714286492188 7.14285729843757  L 0.8928573528907209 7.14285729843757  C 0.3997459734094615 7.14285729843757  0 7.542603054034433  0 8.035714433515691  L 0 9.821428703671934  C 0 10.314540083153194  0.3997459734094615 10.714285838750056  0.8928573528907209 11  L 24.10714286492188 11  C 24.600254244403143 10.714285838750056  25 10.314540083153194  25 9.821428703671934  L 25 8.035714433515691  Z M 25 22.32142859476563  C 25 21.82831721528438  24.600254244403143 21.428571459687518  24.10714286492188 21  L 0.8928573528907209 21  C 0.3997459734094615 21.428571459687518  0 21.82831721528438  0 22.32142859476563  L 0 24.107142864921883  C 0 24.600254244403136  0.3997459734094615 25  0.8928573528907209 25  L 24.10714286492188 25  C 24.600254244403143 25  25 24.600254244403136  25 24.107142864921883  L 25 22.32142859476563  Z " fill-rule="nonzero" fill="#ffffff" stroke="none" transform="matrix(1 0 0 1 621 216 )" />
  </g>
</svg>