<?xml version="1.0" encoding="utf-8"?>
<svg version="1.1" xmlns:xlink="http://www.w3.org/1999/xlink" width="25px" height="18px" xmlns="http://www.w3.org/2000/svg">
  <g transform="matrix(1 0 0 1 -934 -220 )">
    <path d="M 1.25 5.25  C 1.25 6.62890625  2.37109375 7.75  3.75 7.75  C 5.12890625 7.75  6.25 6.62890625  6.25 5.25  C 6.25 3.87109375  5.12890625 2.75  3.75 2.75  C 2.3710937499999996 2.75  1.25 3.87109375  1.25 5.25  Z M 18.75 5.25  C 18.75 6.62890625  19.87109375 7.75  21.25 7.75  C 22.62890625 7.75  23.75 6.62890625  23.75 5.25  C 23.75 3.87109375  22.62890625 2.75  21.25 2.75  C 19.87109375 2.75  18.75 3.87109375  18.75 5.25  Z M 25 11.5  C 25 10.12109375  23.87890625 9  22.5 9  L 20 9  C 19.3125 9  18.69140625 9.27734375  18.23828125 9.7265625  C 19.8125 10.589843750000002  20.9296875 12.1484375  21.171875 14  L 23.75 14  C 24.44140625 14  25 13.44140625  25 12.75  L 25 11.5  Z M 8.125 4.625  C 8.125 7.04296875  10.08203125 9  12.5 9  C 14.91796875 9  16.875 7.04296875  16.875 4.625  C 16.875 2.20703125  14.91796875 0.25  12.5 0.25  C 10.08203125 0.25  8.125 2.20703125  8.125 4.625  Z M 20 14.75  C 20 12.265624999999998  17.984375 10.25  15.5 10.25  L 15.17578125 10.25  C 14.363281250000002 10.640625  13.4609375 10.875  12.5 10.875  C 11.5390625 10.875  10.640625 10.640625  9.82421875 10.25  L 9.5 10.25  C 7.015625 10.25  5 12.265625  5 14.75  L 5 15.875  C 5 16.91015625  5.83984375 17.75  6.875000000000001 17.75  L 18.125 17.75  C 19.16015625 17.75  20 16.91015625  20 15.875  L 20 14.75  Z M 3.8242187499999996 14  C 4.0703125 12.1484375  5.1875 10.58984375  6.761718750000001 9.7265625  C 6.308593749999999 9.27734375  5.6875 9  5 9  L 2.5 9  C 1.12109375 9  0 10.12109375  0 11.5  L 0 12.75  C 0 13.44140625  0.55859375 14  1.25 14  L 3.8242187499999996 14  Z " fill-rule="nonzero" fill="#ffffff" stroke="none" transform="matrix(1 0 0 1 934 220 )" />
  </g>
</svg>