<?xml version="1.0" encoding="utf-8"?>
<svg version="1.1" xmlns:xlink="http://www.w3.org/1999/xlink" width="26px" height="18px" xmlns="http://www.w3.org/2000/svg">
  <g transform="matrix(1 0 0 1 -305 -446 )">
    <path d="M 4.75 10.25  C 4.75 12.3203125  6.4296875 14  8.5 14  L 16 14  C 18.0703125 14  19.75 12.3203125  19.75 10.25  L 21 10.25  C 23.7578125 10.25  26 8.0078125  26 5.25  C 26 2.4921875  23.7578125 0.25  21 0.25  L 5.6875 0.25  C 5.16796875 0.25  4.75 0.66796875  4.75 1.1875  L 4.75 10.25  Z M 19.75 2.75  L 21 2.75  C 22.37890625 2.75  23.5 3.87109375  23.5 5.25  C 23.5 6.62890625  22.37890625 7.75  21 7.75  L 19.75 7.75  L 19.75 2.75  Z M 24.265624999999996 15  C 25.242187499999996 15.25  24.726562499999993 17.75  22.86328125 17.75  L 2.88671875 17.75  C 1.0273437499999998 17.75  0.5039062499999999 15.25  1.48046875 15  L 24.265624999999996 15  Z " fill-rule="nonzero" fill="#ffffff" stroke="none" transform="matrix(1 0 0 1 305 446 )" />
  </g>
</svg>