<?xml version="1.0" encoding="utf-8"?>
<svg version="1.1" xmlns:xlink="http://www.w3.org/1999/xlink" width="25px" height="20px" xmlns="http://www.w3.org/2000/svg">
  <g transform="matrix(1 0 0 1 -621 -445 )">
    <path d="M 9.0625 14.125  C 13.999609374999999 14.125  18 11.048437499999999  18 7.25  C 18 3.4515624999999996  13.999609374999999 0.375  9.0625 0.375  C 4.125390625000001 0.375  0.12499999999999954 3.4515624999999996  0.12499999999999954 7.25  C 0.12499999999999954 8.723828125  0.7308593749999995 10.081640624999999  1.7578124999999996 11.203125  C 1.1820312499999996 12.50078125  0.23242187499999956 13.53203125  0.21953124999999968 13.544921875  C 0.12499999999999954 13.64375  0.0992187499999997 13.78984375  0.15507812499999968 13.91875  C 0.21093749999999967 14.04765625  0.33124999999999954 14.125  0.46874999999999956 14.125  C 2.0414062499999996 14.125  3.343359375 13.596484375  4.280078124999999 13.05078125  C 5.663671875 13.725390625  7.300781250000001 14.125  9.0625 14.125  Z M 24.780468749999997 19.044921875  C 24.767578125 19.03203125  23.81796875 18.005078125  23.2421875 16.703125  C 24.269140625 15.5859375  24.875 14.223828125  24.875 12.75  C 24.875 9.875390625  22.576171875 7.413281250000001  19.319140625 6.386328125  C 19.357812499999998 6.669921875  19.375 6.957812500000001  19.375 7.25  C 19.375 11.800390624999999  14.747265625 15.5  9.0625 15.5  C 8.5984375 15.5  8.147265625 15.465625  7.700390625000001 15.418359375000001  C 9.05390625 17.8890625  12.23359375 19.625  15.937499999999998 19.625  C 17.69921875 19.625  19.336328125 19.2296875  20.719921875 18.55078125  C 21.656640625 19.096484375  22.95859375 19.625  24.53125 19.625  C 24.668750000000003 19.625  24.793359375 19.543359375  24.844921874999997 19.41875  C 24.900781249999994 19.294140625  24.875 19.148046875  24.780468749999997 19.044921875  Z " fill-rule="nonzero" fill="#ffffff" stroke="none" transform="matrix(1 0 0 1 621 445 )" />
  </g>
</svg>