<?xml version="1.0" encoding="utf-8"?>
<svg version="1.1" xmlns:xlink="http://www.w3.org/1999/xlink" width="25px" height="25px" xmlns="http://www.w3.org/2000/svg">
  <g transform="matrix(1 0 0 1 -934 -668 )">
    <path d="M 24.072265625000004 16.103515624999996  C 24.145507812500004 15.834960937499998  24.038085937500004 15.551757812499996  23.798828125 15.4150390625  L 21.718749999999996 14.213867187499998  C 21.9287109375 13.081054687499998  21.9287109375 11.918945312499998  21.718749999999996 10.786132812499998  L 23.798828125 9.5849609375  C 24.038085937499996 9.448242187499998  24.1455078125 9.1650390625  24.0673828125 8.9013671875  C 23.525390624999996 7.163085937499999  22.6025390625 5.590820312499999  21.396484375 4.282226562499999  C 21.2109375 4.08203125  20.908203125 4.033203125  20.673828125 4.169921875  L 18.59375 5.37109375  C 17.7197265625 4.619140625  16.7138671875 4.0380859375  15.625 3.6572265625000004  L 15.625 1.259765625  C 15.625 0.9863281250000001  15.434570312500002 0.7470703125  15.166015625000002 0.6884765625000001  C 13.374023437500002 0.2880859375000001  11.5380859375 0.30761718750000006  9.833984375000002 0.6884765625000001  C 9.565429687500002 0.7470703125  9.375000000000002 0.9863281250000001  9.375000000000002 1.259765625  L 9.375000000000002 3.662109375  C 8.291015625000002 4.0478515625  7.285156250000002 4.62890625  6.406250000000002 5.3759765625  L 4.3310546875 4.1748046875  C 4.091796875 4.0380859375  3.7939453125 4.08203125  3.6083984375000004 4.287109375  C 2.40234375 5.5908203125  1.4794921875000002 7.163085937499999  0.9375000000000001 8.906249999999998  C 0.8544921875000002 9.169921875  0.9667968750000002 9.453124999999998  1.2060546875000002 9.589843749999998  L 3.2861328125 10.791015625  C 3.076171875 11.923828125  3.076171875 13.0859375  3.2861328125 14.21875  L 1.2060546874999998 15.419921875  C 0.9667968749999999 15.556640625000002  0.8593749999999998 15.839843750000002  0.9374999999999998 16.103515625  C 1.4794921874999998 17.841796875  2.40234375 19.4140625  3.6083984375000004 20.72265625  C 3.7939453125 20.9228515625  4.0966796875 20.9716796875  4.3310546875 20.8349609375  L 6.411132812500001 19.6337890625  C 7.285156250000001 20.385742187499996  8.291015625 20.966796875  9.379882812500002 21.34765625  L 9.379882812500002 23.75  C 9.379882812500002 24.0234375  9.570312500000002 24.2626953125  9.838867187500002 24.3212890625  C 11.630859375000002 24.721679687499996  13.466796875 24.7021484375  15.170898437500002 24.3212890625  C 15.439453125000002 24.2626953125  15.629882812500002 24.023437499999996  15.629882812500002 23.75  L 15.629882812500002 21.34765625  C 16.7138671875 20.9619140625  17.7197265625 20.380859375  18.5986328125 19.6337890625  L 20.678710937500004 20.8349609375  C 20.91796875 20.9716796875  21.215820312500004 20.927734375  21.401367187500004 20.72265625  C 22.607421875000004 19.4189453125  23.530273437500004 17.8466796875  24.072265625000004 16.103515624999996  Z M 16.40625 12.5  C 16.40625 14.653320312500002  14.653320312500002 16.40625  12.5 16.40625  C 10.3466796875 16.40625  8.59375 14.653320312500002  8.59375 12.5  C 8.59375 10.346679687499998  10.3466796875 8.59375  12.5 8.59375  C 14.653320312500002 8.59375  16.40625 10.3466796875  16.40625 12.5  Z " fill-rule="nonzero" fill="#ffffff" stroke="none" transform="matrix(1 0 0 1 934 668 )" />
  </g>
</svg>