<?xml version="1.0" encoding="utf-8"?>
<svg version="1.1" xmlns:xlink="http://www.w3.org/1999/xlink" width="32px" height="32px" xmlns="http://www.w3.org/2000/svg">
  <g transform="matrix(1 0 0 1 -134 -12 )">
    <path d="M 31.999978885092766 15.97312574779072  C 31.999992959990916 15.982081908444664  32 15.991039994221094  31.999978885092766 15.97312574779072  Z M 31.99997887757373 16  L 28.235294117647058 16  C 28.235294117647058 9.148235294117645  22.851764705882353 3.764705882352941  16 3.764705882352941  C 9.148235294117645 3.764705882352941  3.764705882352941 9.148235294117645  3.764705882352941 16  C 3.764705882352941 22.851764705882353  9.148235294117645 28.235294117647058  16 28.235237508657004  L 16 32  C 7.040000000000001 32  0 24.959999999999997  0 16  C 0 7.040000000000001  7.040000000000001 0  16 0  C 24.951039994221095 0  31.985918070916384 7.025927030927944  31.99997887757373 16  Z " fill-rule="nonzero" fill="#ffffff" stroke="none" transform="matrix(1 0 0 1 134 12 )" />
  </g>
</svg>