<?xml version="1.0" encoding="utf-8"?>
<svg version="1.1" xmlns:xlink="http://www.w3.org/1999/xlink" width="229px" height="208px" xmlns="http://www.w3.org/2000/svg">
  <g transform="matrix(1 0 0 1 -556 -32 )">
    <path d="M 133.99718875502006 62.905077262693155  C 144.3895582329317 69.47108167770419  151.37911646586343 80.90419426048564  151.37911646586343 94  L 221.0907630522088 94  C 225.27530120481927 94.03620309050773  228.8160642570281 90.50066225165564  228.54016064257024 86.32229580573951  C 226.19497991967867 51.51788079470198  208.12329317269075 21.02958057395144  181.40662650602405 1.7448123620309104  C 178.00381526104417 -0.6887417218542982  173.1755020080321 0.41324503311258864  170.96827309236946 3.948785871964684  L 133.99718875502006 62.905077262693155  Z M 170.9682730923695 184.12362030905078  L 133.99718875502006 125.121412803532  C 128.3411646586345 128.6569536423841  121.67349397590361 130.8150110375276  114.49999999999999 130.8150110375276  C 107.32650602409637 130.8150110375276  100.70481927710841 128.6569536423841  95.0028112449799 125.121412803532  L 58.03172690763053 184.12362030905078  C 55.824497991967874 187.65916114790286  56.928112449799194 192.43443708609271  60.606827309236955 194.40883002207505  C 76.65522088353413 203.041059602649  95.00281124497991 208  114.5 208  C 133.99718875502006 208  152.34477911646587 203.041059602649  168.39317269076304 194.40883002207505  C 172.07188755020078 192.4344370860927  173.1755020080321 187.61324503311255  170.9682730923695 184.12362030905078  Z M 92.4277108433735 94.03620309050773  C 92.4277108433735 106.20397350993379  102.31425702811245 116.07593818984547  114.5 116.07593818984547  C 126.68574297188755 116.07593818984547  136.5722891566265 106.20397350993379  136.5722891566265 94.03620309050773  C 136.5722891566265 81.86843267108168  126.68574297188755 71.99646799116998  114.5 71.99646799116998  C 102.31425702811245 71.99646799116998  92.4277108433735 81.86843267108168  92.4277108433735 94.03620309050773  Z M 0.4598393574297188 86.3682119205298  C 0.18393574297188756 90.50066225165563  3.7246987951807227 94.03620309050771  7.909236947791158 94  L 77.62088353413654 94  C 77.62088353413654 80.90419426048565  84.61044176706825 69.47108167770419  95.0028112449799 62.95099337748345  L 58.03172690763053 3.9947019867549685  C 55.824497991967874 0.45916114790286977  50.996184738955826 -0.6887417218543046  47.5933734939759 1.7907284768211944  C 20.87670682730924 21.075496688741726  2.805020080321285 51.563796909492275  0.4598393574297188 86.3682119205298  Z " fill-rule="nonzero" fill="#1a202c" stroke="none" transform="matrix(1 0 0 1 556 32 )" />
  </g>
</svg>