<?xml version="1.0" encoding="utf-8"?>
<svg version="1.1" xmlns:xlink="http://www.w3.org/1999/xlink" width="16px" height="16px" xmlns="http://www.w3.org/2000/svg">
  <g transform="matrix(1 0 0 1 -338 -280 )">
    <path d="M 8 0.25  C 12.27990625 0.25  15.75 3.72134375  15.75 8  C 15.75 12.28115625  12.27990625 15.75  8 15.75  C 3.72009375 15.75  0.25 12.28115625  0.25 8  C 0.25 3.72134375  3.72009375 0.25  8 0.25  Z M 11.849562500000001 5.999999999999999  C 11.849562500000001 4.187437499999999  9.96940625 2.812499999999999  8.20796875 2.8125  C 6.504937499999999 2.8125  5.418749999999999 3.52990625  4.565812499999999 4.8049375  C 4.455312499999999 4.970125  4.492281249999999 5.19290625  4.650656249999999 5.313000000000001  L 5.734999999999999 6.135187500000001  C 5.89765625 6.258531250000001  6.12940625 6.229187500000001  6.255781249999999 6.068875  C 6.814031249999999 5.3608125  7.196812499999999 4.95021875  8.046499999999998 4.95021875  C 8.684906249999997 4.95021875  9.474562499999998 5.36109375  9.474562499999998 5.98015625  C 9.474562499999998 6.44815625  9.088218749999998 6.6885  8.457874999999998 7.04190625  C 7.72275 7.454  6.75 7.96690625  6.75 9.25  L 6.75 9.375  C 6.75 9.58209375  6.91790625 9.75  7.125 9.75  L 8.875 9.75  C 9.08209375 9.75  9.25 9.58209375  9.25 9.375  L 9.25 9.33334375  C 9.25 8.44390625  11.849562500000001 8.406875  11.849562500000001 5.999999999999999  Z M 9.4375 12  C 9.4375 11.20734375  8.79265625 10.5625  8 10.5625  C 7.20734375 10.5625  6.5625 11.20734375  6.5625 12  C 6.5625 12.792625  7.20734375 13.4375  8 13.4375  C 8.79265625 13.4375  9.4375 12.792625  9.4375 12  Z " fill-rule="nonzero" fill="#50007a" stroke="none" transform="matrix(1 0 0 1 338 280 )" />
  </g>
</svg>