<?xml version="1.0" encoding="utf-8"?>
<svg version="1.1" xmlns:xlink="http://www.w3.org/1999/xlink" width="25px" height="39px" xmlns="http://www.w3.org/2000/svg">
  <g transform="matrix(1 0 0 1 -271 -176 )">
    <path d="M 24.263392857142875 24.98888888888891  C 24.575892857142854 24.98888888888891  24.79166666666668 25.131828703703718  24.9107142857143 25.417708333333323  C 25.029761904761916 25.703587962962978  24.992559523809543 25.966898148148154  24.799107142857135 26.20763888888891  L 13.080357142857135 38.77430555555556  C 12.9315476190476 38.92476851851852  12.760416666666652 39  12.566964285714288 39  C 12.358630952380967 39  12.180059523809517 38.92476851851852  12.031249999999982 38.77430555555556  L 0.20089285714286476 26.20763888888891  C 0.007440476190456735 25.966898148148154  -0.02976190476191576 25.703587962962978  0.08928571428570287 25.417708333333323  C 0.22321428571427937 25.131828703703718  0.438988095238102 24.98888888888891  0.7366071428571264 24.98888888888891  L 6 24.98888888888891  L 6 0.7222222222222205  C 5.736607142857153 0.5115740740740489  5.803571428571441 0.33854166666666174  5.937500000000018 0.20312500000001477  C 6.07142857142855 0.06770833333332348  6.242559523809543 0  6.450892857142865 0  L 18.549107142857135 0  C 18.757440476190457 0  18.928571428571406 0.06770833333332348  19.062499999999982 0.20312500000001477  C 19.19642857142856 0.33854166666666174  19.263392857142847 0.5115740740740489  19 0.7222222222222205  L 19 24.98888888888891  L 24.263392857142875 24.98888888888891  Z " fill-rule="nonzero" fill="#e2e8f0" stroke="none" transform="matrix(1 0 0 1 271 176 )" />
  </g>
</svg>