<?xml version="1.0" encoding="utf-8"?>
<svg version="1.1" xmlns:xlink="http://www.w3.org/1999/xlink" width="437px" height="120px" xmlns="http://www.w3.org/2000/svg">
  <g transform="matrix(1 0 0 1 -65 -150 )">
    <path d="M 67 154  A 2 2 0 0 1 69 152 L 498 152  A 2 2 0 0 1 500 154 L 500 266  A 2 2 0 0 1 498 268 L 69 268  A 2 2 0 0 1 67 266 L 67 154  Z " fill-rule="nonzero" fill="#ffffff" stroke="none" />
    <path d="M 66 154  A 3 3 0 0 1 69 151 L 498 151  A 3 3 0 0 1 501 154 L 501 266  A 3 3 0 0 1 498 269 L 69 269  A 3 3 0 0 1 66 266 L 66 154  Z " stroke-width="2" stroke-dasharray="18,8" stroke="#e2e8f0" fill="none" />
  </g>
</svg>