<?xml version="1.0" encoding="utf-8"?>
<svg version="1.1" xmlns:xlink="http://www.w3.org/1999/xlink" width="25px" height="26px" xmlns="http://www.w3.org/2000/svg">
  <g transform="matrix(1 0 0 1 -621 -667 )">
    <path d="M 7.8125 10.765625  C 7.8125 11.197265625  8.162109375 11.546875  8.59375 11.546875  L 16.40625 11.546875  C 16.837890625 11.546875  17.1875 11.197265625  17.1875 10.765625  L 17.1875 9.984375  C 17.1875 9.552734375  16.837890625 9.203125  16.40625 9.203125  L 8.59375 9.203125  C 8.162109375 9.203125  7.8125 9.552734375  7.8125 9.984375  L 7.8125 10.765625  Z M 7.8125 14.671875  L 7.8125 15.453125  C 7.8125 15.884765624999998  8.162109375 16.234375  8.59375 16.234375  L 16.40625 16.234375  C 16.837890625 16.234375  17.1875 15.884765624999998  17.1875 15.453125  L 17.1875 14.671875  C 17.1875 14.240234375000002  16.837890625 13.890625  16.40625 13.890625  L 8.59375 13.890625  C 8.162109375 13.890625  7.8125 14.240234375000002  7.8125 14.671875  Z M 14.7880859375 20.6259765625  C 14.103515625000002 21.1201171875  13.3017578125 21.36767578125  12.5 21.36767578125  C 11.6982421875 21.36767578125  10.896484375 21.12060546875  10.2119140625 20.6259765625  L 0 13.249023437499998  L 0 23.65625  C 0 24.95068359375  1.04931640625 26  2.34375 26  L 22.65625 26  C 23.95068359375 26  25 24.95068359375  25 23.65625  L 25 13.249023437499998  L 14.7880859375 20.6259765625  Z M 25 10.800781250000002  C 25 10.0810546875  24.6689453125 9.40087890625  24.10205078125 8.95654296875  C 23.669921875 8.61767578125  23.26025390625 8.298828125  22.65625 7.842773437499999  L 22.65625 5.6875  C 22.65625 4.39306640625  21.60693359375 3.3437499999999996  20.3125 3.3437499999999996  L 16.52587890625 3.3437499999999996  C 16.37744140625 3.236328125  16.2392578125 3.1357421875  16.08447265625 3.0234375  C 15.263671875000002 2.42431640625  13.6328125 0.98291015625  12.5 1  C 11.3671875 0.98291015625  9.73681640625 2.42431640625  8.91552734375 3.0234375  C 8.7607421875 3.1357421874999996  8.62255859375 3.236328125  8.47412109375 3.3437499999999996  L 4.6875 3.3437499999999996  C 3.3930664062499996 3.3437499999999996  2.34375 4.39306640625  2.34375 5.6875  L 2.34375 7.842773437499999  C 1.7397460937500002 8.29833984375  1.330078125 8.61767578125  0.89794921875 8.95654296875  C 0.33120293672984474 9.400695364967724  9.753165268641174E-05 10.080730772785248  0 10.80078125  L 0 11.32080078125  L 4.6875 14.707031250000002  L 4.6875 6  L 20.3125 6  L 20.3125 14.707031250000002  L 25 11.320800781250002  L 25 10.800781250000002  Z " fill-rule="nonzero" fill="#ffffff" stroke="none" transform="matrix(1 0 0 1 621 667 )" />
  </g>
</svg>