<?xml version="1.0" encoding="utf-8"?>
<svg version="1.1" xmlns:xlink="http://www.w3.org/1999/xlink" width="18px" height="20px" xmlns="http://www.w3.org/2000/svg">
  <g transform="matrix(1 0 0 1 -15 -71 )">
    <path d="M 11.5 13.896484825218376  C 11.5 15.183594105276324  10.997265625 17.966015775034375  10.696484375 19.08437506753996  C 10.495703125000002 19.82695313776459  9.736718750000001 20  9 20  C 8.263281249999999 20  7.504296875000001 19.82695313776459  7.303515624999999 19.08437506753996  C 7.005078125000001 17.973828274458093  6.5 15.191406604700044  6.5 13.896484825218376  C 6.5 12.523047426528318  7.71640625 12.18750057627952  9 12.18750057627952  C 10.283593750000001 12.18750057627952  11.5 12.523047426528313  11.5 13.896484825218376  Z M 6.377734375 11.271875643819481  C 5.656521527173815 10.566387434555391  5.249999999999999 9.600053918988783  5.249999999999999 8.591162691678301  C 5.249999999999999 6.520095032582613  6.928932188134523 4.841162968292471  8.999999999999998 4.841162968292471  C 11.071067811865476 4.841162968292471  12.75 6.520095032582613  12.75 8.591162691678301  C 12.75 9.600053918988783  12.343478472826185 10.566387434555391  11.622265625 11.271875643819481  C 11.576136071373432 11.316081460376077  11.550052752897729 11.37720344273827  11.550052752897729 11.441094675480272  C 11.550052752897729 11.516210508828975  11.58605630338359 11.58677512977593  11.646875 11.630859992339438  C 12.002331351755576 11.885890995981164  12.287700040016796 12.226479306424087  12.4765625 12.621094294296007  C 12.515269669316163 12.703115747684325  12.59782489919917 12.755442903772893  12.68852090112261 12.755442903772893  C 12.746604100945238 12.755442903772893  12.802618214111096 12.733875569453785  12.845703125 12.694922413850165  C 14.017485965602663 11.600553336025108  14.665075811345304 10.057142831786834  14.625 8.45429772665469  C 14.552343749999999 5.4773448212460005  12.140625 3.055469999892651  9.1640625 2.97109500611647  C 5.987109375 2.880860637772498  3.375 5.4378916991562125  3.375 8.593750841368099  C 3.374174096878498 10.148416906280586  4.018512473904898 11.633719312367184  5.154296874999999 12.695313038821352  C 5.197366157883922 12.734194003948387  5.2533268003934595 12.755716905857994  5.311350009546064 12.755716905857994  C 5.402155488724173 12.755716905857994  5.484789766540581 12.703264768014437  5.523437500000001 12.621094294296007  C 5.712245053682926 12.226336986830034  5.997617956927473 11.885609289445425  6.353125 11.63046936736825  C 6.413943696616407 11.58638450480475  6.44994724710227 11.515819883857787  6.44994724710227 11.440704050509085  C 6.44994724710227 11.376812817767085  6.423863928626568 11.31569083540489  6.377734375 11.271485018848296  Z M 9.004688756927248 0  C 9.00312583786706 0  9.001562918835557 0  9 0  C 8.998306800085508 0  8.996613599924457 0  8.99492039972432 0  C 4.165233409700112 0  0.24999852472431994 3.9152345961732724  0.24999852472431994 8.74492122994152  C 0.24999852472431994 8.746614430016761  0.24999901648290002 8.748307630052915  0.2500000000000002 8.75000082984251  C 0.2500000000000002 12.265625570516725  2.3046875 15.220703477538997  5.161718749999999 16.617578374500216  C 5.1933886444905735 16.63279257973582  5.228073908094604 16.64069185552075  5.26320870981802 16.64069185552075  C 5.392650448059611 16.64069185552075  5.49758370981802 16.535758601502614  5.49758370981802 16.406316872809136  C 5.49758370981802 16.394525679333498  5.496693905126256 16.382751296664296  5.494921874999999 16.371094017681838  C 5.4019531249999995 15.765234687372313  5.325390624999999 15.160156607005161  5.283984374999999 14.639062895443008  C 5.277970513444098 14.56738600080488  5.239377177364965 14.502439757193734  5.179296874999999 14.46289103343811  C 3.258891066323735 13.179211407853943  2.11149285679769 11.016925774109406  2.125 8.707032083012047  C 2.1480468750000004 4.947657360317751  5.222265625 1.884766961248137  8.981640625 1.8750013369684866  C 12.780859375000002 1.8652357126888361  15.875 4.953126109914355  15.875000000000004 8.75000082984251  C 15.874154697627883 11.085517103091567  14.68768671953007 13.26087986787748  12.724609375 14.526172278770247  C 12.685546875 15.073047238430679  12.6046875 15.721094065628293  12.505078125 16.371094017681838  C 12.503306094873741 16.382751296664296  12.50241629018198 16.39452567933349  12.50241629018198 16.40631687280914  C 12.50241629018198 16.535758601502618  12.607349551940388 16.640691855520753  12.73679129018198 16.640691855520753  C 12.7719260919054 16.640691855520753  12.806611355509418 16.63279257973582  12.83828125 16.61757837450022  C 15.688671875 15.223828477308485  17.75 12.273047444969261  17.750000000000004 8.750000829842511  C 17.750000837951482 8.748437911122242  17.75000125692725 8.746874992206026  17.75000125692725 8.745312073261125  C 17.75000125692725 3.9154097032783888  13.83459148318186 0  9.004688756927248 0  Z M 11.5 8.75000082984251  C 11.5 7.36928905711205  10.380711874576981 6.250001014251954  9 6.250001014251954  C 7.619288125423017 6.250001014251954  6.5 7.36928905711205  6.5 8.75000082984251  C 6.5 10.130712602572967  7.619288125423017 11.250000645433062  9 11.250000645433062  C 10.380711874576981 11.250000645433062  11.5 10.130712602572967  11.5 8.75000082984251  Z " fill-rule="nonzero" fill="#ffffff" stroke="none" transform="matrix(1 0 0 1 15 71 )" />
  </g>
</svg>