<?xml version="1.0" encoding="utf-8"?>
<svg version="1.1" xmlns:xlink="http://www.w3.org/1999/xlink" width="134px" height="52px" xmlns="http://www.w3.org/2000/svg">
  <defs>
    <linearGradient gradientUnits="userSpaceOnUse" x1="134" y1="26" x2="58.87772925764192" y2="26" id="LinearGradient425">
      <stop id="Stop426" stop-color="#ffffff" stop-opacity="0" offset="0" />
      <stop id="Stop427" stop-color="#b9095b" offset="1" />
    </linearGradient>
  </defs>
  <g>
    <path d="M 30.87890625 44.140625  C 32.02734375 45.23046875  32.05078125 47.046875  30.92578125 48.16015625  L 28.32421875 50.76171875  C 27.22265625 51.86328125  25.44140625 51.86328125  24.3515625 50.76171875  L 1.5703125 27.992187500000004  C 0.46875 26.890625  0.46875 25.109375  1.5703125 24.01953125  L 24.3515625 1.23828125  C 25.453125 0.13671875  27.234375 0.13671875  28.32421875 1.23828125  L 30.92578125 3.83984375  C 32.0390625 4.953125  32.015625 6.769531250000001  30.87890625 7.859375  L 16.7578125 22  L 130.4375 22  C 131.99609375 21.3125  133.25 22.56640625  133.25 24.125  L 133.25 27.875  C 133.25 29.43359375  131.99609375 30.687499999999996  130.4375 30  L 16.7578125 30  L 30.87890625 44.140625  Z " fill-rule="nonzero" fill="url(#LinearGradient425)" stroke="none" />
  </g>
</svg>