<?xml version="1.0" encoding="utf-8"?>
<svg version="1.1" xmlns:xlink="http://www.w3.org/1999/xlink" width="12px" height="10px" xmlns="http://www.w3.org/2000/svg">
  <g transform="matrix(1 0 0 1 -8 -7 )">
    <path d="M 8.16328125 6.13671875  C 10.55390625 4.4  11.247656249999999 3.8796874999999993  11.77265625 3.4718750000000007  C 11.8640625 3.39921875  12 3.4671875000000005  12 3.58203125  L 12 8.375  C 12 8.99609375  11.49609375 9.5  10.875 9.5  L 1.125 9.5  C 0.50390625 9.5  0 8.99609375  0 8.375  L 0 3.5843749999999996  C 0 3.4671874999999996  0.13359375 3.4015625  0.22734374999999998 3.4742187500000004  C 0.7523437499999999 3.8820312500000007  1.4484374999999998 4.4  3.8390625 6.13671875  C 4.3335937499999995 6.497656249999999  5.16796875 7.257031250000001  6 7.252343750000001  C 6.836718749999999 7.259375  7.6875 6.483593750000001  8.16328125 6.13671875  Z M 4.2796875 5.5296875  C 4.6734375 5.815625000000001  5.456250000000001 6.509375  6 6.5  C 6.543749999999999 6.5093749999999995  7.3265625000000005 5.815625000000001  7.7203124999999995 5.5296875  C 10.83046875 3.2726562500000007  11.0671875 3.0757812500000004  11.784374999999999 2.513281250000001  C 11.9203125 2.407812500000001  11.999999999999998 2.243750000000001  11.999999999999998 2.070312500000001  L 11.999999999999998 1.6250000000000009  C 11.999999999999998 1.0039062500000009  11.496093749999998 0.5000000000000007  10.874999999999998 0.5000000000000007  L 1.125 0.5000000000000007  C 0.50390625 0.5  0 1.00390625  0 1.625  L 0 2.0703125  C 0 2.2437500000000004  0.0796875 2.4054687500000003  0.21562499999999998 2.5132812500000004  C 0.9328124999999999 3.0734375000000007  1.1695312500000001 3.2726562500000007  4.2796875 5.5296875  Z " fill-rule="nonzero" fill="#4c0c6f" stroke="none" transform="matrix(1 0 0 1 8 7 )" />
  </g>
</svg>