<?xml version="1.0" encoding="utf-8"?>
<svg version="1.1" xmlns:xlink="http://www.w3.org/1999/xlink" width="26px" height="25px" xmlns="http://www.w3.org/2000/svg">
  <g transform="matrix(1 0 0 1 -49 -10 )">
    <path d="M 18.192760750000005 12.447942699999999  L 24.7031774 5.937526040000002  C 24.8938024 5.742734370000001  25.000312800000003 5.480755209999998  25.0000529 5.20835937  C 25.0000529 2.331796869999998  22.6682816 2.5578800499914678E-05  19.79171908 2.5578800499914678E-05  C 19.515156580000003 -0.00023437500000156317  19.25031283 0.10940104200000177  19.054739920000003 0.3047135420000018  L 12.544323249999998 6.8151302099999995  C 11.177135749999998 8.178932289999999  10.410989916670001 10.0323177  10.4166871814616 11.963567699999999  L 10.4166871814616 13.541692699999999  C 10.4166871814616 14.116953100000003  10.883125333000002 14.583388299999998  11.458385749999998 14.583388299999998  L 13.036250330000001 14.583388299999998  C 14.97140658 14.5888281  16.828177420000003 13.8198177  18.192760750000005 12.447942699999999  Z M 18.2291667 17.7083333  L 3.645833329999998 17.7083333  C 2.7830729199999986 17.7083333  2.0833333299999985 17.0085938  2.0833333299999985 16.1458333  C 2.0833333299999985 15.2830729  2.7830729199999986 14.583333300000001  3.645833329999998 14.583333300000001  L 7.291666669999998 14.583333300000001  C 7.86692708 14.583333300000001  8.333333330000002 14.116927099999998  8.333333330000002 13.541666699999999  C 8.333333330000002 12.966406200000002  7.86692708 12.5  7.291666669999998 12.5  L 3.645833329999998 12.5  C 1.6322916700000007 12.5  0 14.132291699999996  0 16.1458333  C 0 18.159374999999997  1.6322916700000007 19.7916667  3.645833329999998 19.7916667  L 18.2291667 19.7916667  C 19.0919271 19.7916667  19.7916667 20.4914063  19.7916667 21.3541667  C 19.7916667 22.2169271  19.0919271 22.9166667  18.2291667 22.9166667  L 11.4583333 22.9166667  C 10.883072900000002 22.9166667  10.4166667 23.383072900000002  10.4166667 23.9583333  C 10.4166667 24.5335938  10.883072900000002 25  11.4583333 25  L 18.2291667 25  C 20.242708300000004 25  21.875 23.367708300000004  21.875 21.3541667  C 21.875 19.340625000000003  20.242708300000004 17.7083333  18.2291667 17.7083333  Z M 14.02609408 8.281276040000002  L 20.197708669999997 2.1094010400000016  C 21.601875300000003 2.293255209999998  22.706823200000002 3.3982031199999976  22.8906774 4.80210937  L 16.718802420000003 10.973984399999999  C 15.744583669999995 11.9541927  14.418542000000002 12.503671900000002  13.036250330000001 12.500044099999998  L 12.50003439 12.500044099999998  L 12.50003439 11.963567699999999  C 12.496406579999999 10.581536499999999  13.045885749999998 9.25549479  14.02609408 8.281276040000002  Z " fill-rule="nonzero" fill="#767676" stroke="none" transform="matrix(1 0 0 1 49 10 )" />
  </g>
</svg>