<?xml version="1.0" encoding="UTF-8"?>
<svg width="25px" height="25px" viewBox="0 0 25 25" version="1.1" xmlns="http://www.w3.org/2000/svg" xmlns:xlink="http://www.w3.org/1999/xlink">
    <!-- Generator: Sketch 59.1 (86144) - https://sketch.com -->
    <title>ic-pin</title>
    <desc>Created with Sketch.</desc>
    <g id="ic-pin" stroke="none" stroke-width="1" fill="none" fill-rule="evenodd">
        <path d="M12.4133269,18.9890872 L12.4133269,26.5490872 C12.4133269,27.1455547 11.9297944,27.6290872 11.3333269,27.6290872 C10.7368594,27.6290872 10.2533269,27.1455547 10.2533269,26.5490872 L10.2533269,18.9890872 L6.47332691,18.9890872 C4.68392432,18.9890872 3.23332691,17.5384897 3.23332691,15.7490872 C3.23332691,15.527065 3.25614798,15.3056307 3.30143035,15.0882754 L3.39320977,14.6477342 C3.78150299,12.7839267 5.10342791,11.313189 6.80876123,10.6829281 L6.80876123,7.71423592 C5.53024452,7.08634639 4.56989526,5.88504079 4.28876123,4.40908716 C4.2513527,4.21269237 4.23252373,4.01321092 4.23252373,3.81328516 C4.23252373,2.05470116 5.65813773,0.629087156 7.41672173,0.629087156 L14.8408007,0.629087156 C15.0407265,0.629087156 15.2402079,0.647916127 15.4366027,0.685324658 C17.1641276,1.01437702 18.2978136,2.68156227 17.9687612,4.40908716 C17.6876272,5.88504079 16.7272779,7.08634639 15.4487612,7.71423592 L15.4487612,10.6829281 C17.1540946,11.313189 18.4760195,12.7839267 18.8643127,14.6477342 L18.9560921,15.0882754 C19.3210484,16.8400655 18.1967974,18.5560274 16.4450073,18.9209837 C16.227652,18.9662661 16.0062177,18.9890872 15.7841956,18.9890872 L12.4133269,18.9890872 Z M13.4235986,12.3728048 L13.4235986,6.09334378 C14.2064484,5.83899901 14.8706443,5.27865891 15.2474637,4.51708716 L15.3311066,4.34804034 C15.5956252,3.81343445 15.3766761,3.1656161 14.8420702,2.90109757 C14.6931599,2.82741799 14.5292584,2.78908716 14.363117,2.78908716 L7.58181031,2.78908716 C6.98534278,2.78908716 6.50181031,3.27261963 6.50181031,3.86908716 C6.50181031,4.03522854 6.54014113,4.19913003 6.61382071,4.34804034 L6.69746367,4.51708716 C7.16478731,5.46157284 8.07410903,6.09655514 9.10359861,6.22220235 L9.10359861,12.3006733 C7.6822372,12.3895758 6.41527069,13.253597 5.81859861,14.5610872 C5.72328317,14.7699523 5.67395575,14.9968584 5.67395575,15.2264443 C5.67395575,16.1115595 6.3914834,16.8290872 7.27659861,16.8290872 L14.7105986,16.8290872 C14.9401845,16.8290872 15.1670906,16.7797597 15.3759558,16.6844443 C16.1811869,16.3169777 16.5360652,15.3663183 16.1685986,14.5610872 C15.6487159,13.421866 14.6199656,12.6193133 13.4235986,12.3728048 Z" id="Shape" fill="#555555" transform="translate(11.129087, 14.129087) rotate(45.000000) translate(-11.129087, -14.129087) "></path>
    </g>
</svg>