<?xml version="1.0" encoding="utf-8"?>
<svg version="1.1" xmlns:xlink="http://www.w3.org/1999/xlink" width="28px" height="22px" xmlns="http://www.w3.org/2000/svg">
  <defs>
    <mask fill="white" id="clip419">
      <path d="M 0.6666666666666665 4.6  C 0.6666666666666665 2.253333333333333  2.586666666666666 0.33333333333333304  4.933333333333334 0.33333333333333304  C 4.933333333333334 0.33333333333333304  23.066666666666666 0.33333333333333304  23.066666666666666 0.33333333333333304  C 25.413333333333334 0.33333333333333304  27.333333333333336 2.253333333333333  27.333333333333336 4.6  C 27.333333333333336 4.6  27.333333333333336 17.4  27.333333333333336 17.4  C 27.333333333333336 19.746666666666666  25.413333333333334 21.666666666666664  23.066666666666666 21.666666666666664  C 23.066666666666666 21.666666666666664  4.933333333333334 21.666666666666664  4.933333333333334 21.666666666666664  C 2.586666666666666 21.666666666666664  0.6666666666666665 19.746666666666666  0.6666666666666665 17.4  C 0.6666666666666665 17.4  0.6666666666666665 4.6  0.6666666666666665 4.6  Z " fill-rule="evenodd" />
    </mask>
  </defs>
  <g transform="matrix(1 0 0 1 -14 -79 )">
    <path d="M 0.6666666666666665 4.6  C 0.6666666666666665 2.253333333333333  2.586666666666666 0.33333333333333304  4.933333333333334 0.33333333333333304  C 4.933333333333334 0.33333333333333304  23.066666666666666 0.33333333333333304  23.066666666666666 0.33333333333333304  C 25.413333333333334 0.33333333333333304  27.333333333333336 2.253333333333333  27.333333333333336 4.6  C 27.333333333333336 4.6  27.333333333333336 17.4  27.333333333333336 17.4  C 27.333333333333336 19.746666666666666  25.413333333333334 21.666666666666664  23.066666666666666 21.666666666666664  C 23.066666666666666 21.666666666666664  4.933333333333334 21.666666666666664  4.933333333333334 21.666666666666664  C 2.586666666666666 21.666666666666664  0.6666666666666665 19.746666666666666  0.6666666666666665 17.4  C 0.6666666666666665 17.4  0.6666666666666665 4.6  0.6666666666666665 4.6  Z " fill-rule="nonzero" fill="#ffffff" stroke="none" fill-opacity="0" transform="matrix(1 0 0 1 14 79 )" />
    <path d="M 0.6666666666666665 4.6  C 0.6666666666666665 2.253333333333333  2.586666666666666 0.33333333333333304  4.933333333333334 0.33333333333333304  C 4.933333333333334 0.33333333333333304  23.066666666666666 0.33333333333333304  23.066666666666666 0.33333333333333304  C 25.413333333333334 0.33333333333333304  27.333333333333336 2.253333333333333  27.333333333333336 4.6  C 27.333333333333336 4.6  27.333333333333336 17.4  27.333333333333336 17.4  C 27.333333333333336 19.746666666666666  25.413333333333334 21.666666666666664  23.066666666666666 21.666666666666664  C 23.066666666666666 21.666666666666664  4.933333333333334 21.666666666666664  4.933333333333334 21.666666666666664  C 2.586666666666666 21.666666666666664  0.6666666666666665 19.746666666666666  0.6666666666666665 17.4  C 0.6666666666666665 17.4  0.6666666666666665 4.6  0.6666666666666665 4.6  Z " stroke-width="3.2" stroke="#222222" fill="none" transform="matrix(1 0 0 1 14 79 )" mask="url(#clip419)" />
  </g>
</svg>