<?xml version="1.0" encoding="utf-8"?>
<svg version="1.1" xmlns:xlink="http://www.w3.org/1999/xlink" width="20px" height="14px" xmlns="http://www.w3.org/2000/svg">
  <g transform="matrix(1 0 0 1 -14 -69 )">
    <path d="M 4.444444444444445 10.333333333333334  L 4.444444444444445 3.666666666666666  L 15.555555555555557 3.666666666666666  L 15.555555555555557 10.333333333333334  L 4.444444444444445 10.333333333333334  Z M 20 5.333333333333334  C 19.079525416948677 5.333333333333334  18.333333333333336 6.0795254169486785  18.333333333333336 7  C 18.333333333333336 7.9204745830513215  19.079525416948677 8.666666666666666  20 8.666666666666666  L 20 11.999999999999998  C 20 12.92047458305132  19.25380791638466 13.666666666666664  18.333333333333336 13.666666666666668  L 1.666666666666667 13.666666666666664  C 0.7461920836153445 13.666666666666664  0 12.92047458305132  0 12  L 0 8.666666666666666  C 0.9204745830513227 8.666666666666666  1.666666666666667 7.9204745830513215  1.666666666666667 7  C 1.666666666666667 6.0795254169486785  0.9204745830513227 5.333333333333334  0 5.333333333333334  L 0 2  C 0 1.0795254169486768  0.7461920836153445 0.3333333333333335  1.666666666666667 0.3333333333333335  L 18.333333333333336 0.3333333333333335  C 19.25380791638466 0.3333333333333335  20 1.0795254169486777  20 2  L 20 5.333333333333334  Z M 16.666666666666668 10.61111111111111  L 16.666666666666668 3.3888888888888893  C 16.666666666666668 2.9286515973632277  16.293570624858997 2.5555555555555554  15.833333333333336 2.5555555555555554  L 4.166666666666667 2.5555555555555554  C 3.7064293751410062 2.5555555555555554  3.333333333333334 2.9286515973632277  3.333333333333334 3.3888888888888893  L 3.333333333333334 10.61111111111111  C 3.333333333333334 11.071348402636774  3.7064293751410062 11.444444444444445  4.166666666666667 11.444444444444445  L 15.833333333333336 11.444444444444445  C 16.293570624858997 11.444444444444445  16.666666666666668 11.071348402636774  16.666666666666668 10.61111111111111  Z " fill-rule="nonzero" fill="#ffffff" stroke="none" transform="matrix(1 0 0 1 14 69 )" />
  </g>
</svg>