<?xml version="1.0" encoding="utf-8"?>
<svg version="1.1" xmlns:xlink="http://www.w3.org/1999/xlink" width="20px" height="22px" xmlns="http://www.w3.org/2000/svg">
  <g transform="matrix(1 0 0 1 -14 -65 )">
    <path d="M 19.554435483870964 13.971774193548388  C 19.61816313824864 13.752913712355866  19.525151788983372 13.51872442224153  19.328629032258064 13.403225806451614  L 17.610887096774192 12.411290322580644  C 17.784275843539277 11.475707519950946  17.784275843539277 10.516227963920022  17.610887096774192 9.580645161290322  L 19.328629032258064 8.588709677419354  C 19.524859880449213 8.475027529541833  19.616782064765765 8.241043787645154  19.550403225806452 8.024193548387098  C 19.10663169957009 6.605088026599676  18.353286115139507 5.302227107273658  17.344758064516128 4.209677419354838  C 17.19190795466431 4.043178608445445  16.944154467979008 4.004676377406515  16.74798387096774 4.116935483870967  L 15.030241935483872 5.108870967741936  C 14.308753727802102 4.4879103419654705  13.477163273036531 4.007830984033372  12.578629032258064 3.6935483870967745  L 12.578629032258064 1.7137096774193548  C 12.578346714285797 1.4870968241445368  12.420826795570395 1.2910347976583427  12.199596774193552 1.2419354838709677  C 10.749584828764192 0.9193022560799035  9.246382913171292 0.9193022560799033  7.796370967741937 1.2419354838709677  C 7.575140946365087 1.2910347976583414  7.417621027649681 1.4870968241445361  7.417338709677419 1.7137096774193548  L 7.417338709677419 3.69758064516129  C 6.521119528494412 4.016891652168075  5.690410892263172 4.496461933939728  4.965725806451612 5.112903225806452  L 3.252016129032258 4.120967741935484  C 3.056202511233983 4.006799205598051  2.8071724256123822 4.045499827012218  2.655241935483871 4.213709677419354  C 1.64507276836799 5.305049727241001  0.891501236194191 6.6083014081119575  0.4495967741935483 8.028225806451612  C 0.38178202809833256 8.245129412583413  0.474051853887441 8.479998060046597  0.6713709677419355 8.59274193548387  L 2.389112903225806 9.584677419354838  C 2.215724156460719 10.520260221984538  2.2157241564607193 11.479739778015462  2.389112903225806 12.415322580645162  L 0.6713709677419353 13.40725806451613  C 0.47514011955078544 13.52094021239365  0.3832179352342338 13.754923954290328  0.44959677419354815 13.971774193548391  C 0.8933683004299109 15.390879715335814  1.646713884860492 16.69374063466183  2.655241935483871 17.78629032258064  C 2.808092045335692 17.952789133490032  3.055845532020988 17.991291364528962  3.252016129032258 17.879032258064512  L 4.969758064516129 16.887096774193544  C 5.691246272197896 17.50805739997001  6.522836726963468 17.988136757902108  7.421370967741936 18.302419354838708  L 7.421370967741934 20.28629032258064  C 7.4216532857142 20.51290317585546  7.579173204429605 20.708965202341652  7.800403225806453 20.75806451612903  C 9.250415171235808 21.08069774392009  10.753617086828712 21.08069774392009  12.203629032258066 20.758064516129025  C 12.424859053634913 20.708965202341652  12.582378972350316 20.51290317585546  12.58266129032258 20.28629032258064  L 12.58266129032258 18.302419354838708  C 13.478880471505594 17.983108347831923  14.309589107736825 17.503538066060273  15.034274193548388 16.887096774193544  L 16.75201612903226 17.879032258064512  C 16.94782974683054 17.993200794401947  17.196859832452137 17.95450017298778  17.348790322580648 17.786290322580644  C 18.358959489696527 16.694950272758994  19.11253102187032 15.391698591888044  19.554435483870964 13.971774193548388  Z M 13.223790322580646 10.995967741935484  C 13.221347101040772 12.776518453639529  11.778534582671787 14.219330972008514  9.99798387096774 14.221774193548386  C 8.21642016183615 14.221774193548386  6.772177419354836 12.777531451067073  6.772177419354836 10.995967741935482  C 6.772177419354836 9.214404032803891  8.21642016183615 7.77016129032258  9.99798387096774 7.77016129032258  C 11.779547580099333 7.77016129032258  13.223790322580642 9.214404032803891  13.223790322580642 10.995967741935482  Z " fill-rule="nonzero" fill="#ffffff" stroke="none" transform="matrix(1 0 0 1 14 65 )" />
  </g>
</svg>