<?xml version="1.0" encoding="utf-8"?>
<svg version="1.1" xmlns:xlink="http://www.w3.org/1999/xlink" width="20px" height="21px" xmlns="http://www.w3.org/2000/svg">
  <g transform="matrix(1 0 0 1 -14 -179 )">
    <path d="M 4.08984375 5  C 4.553518301849539 5.469280877427848  4.859372301453597 6.071430939148337  4.96484375 6.72265625  C 5.016821293051813 7.027262744304962  5.2808343961156545 7.250023800015077  5.58984375 7.25  L 6.234375 7.25  C 6.6171875 7.25  6.921875 6.91796875  6.87109375 6.546875  C 6.724978728514964 5.444490132718312  6.222989049366012 4.419937426914302  5.44140625 3.628906249999999  C 4.881775842542516 3.0613781047981687  4.520122051288071 2.328481217218139  4.410156250000001 1.5390625  C 4.364999608394882 1.2272886400514917  4.096262242076955 0.9969423260646977  3.78125 1  L 3.140625 1  C 3.1396118257392303 0.9999951662566565  3.1385986413891303 0.9999927493746701  3.1375854555977956 0.9999927493746701  C 2.785719663811067 0.9999927493746701  2.500476080597795 1.285236332587942  2.500476080597795 1.6371021243746702  C 2.500476080597795 1.6591542825352152  2.5016210114638326 1.6811915697080801  2.503906249999999 1.703125  C 2.654341092298643 2.946957358005328  3.2119428752701085 4.106109832950935  4.08984375 5  Z M 8.46484375 5  C 8.92851830184954 5.469280877427847  9.234372301453597 6.071430939148337  9.33984375 6.72265625  C 9.391821293051812 7.027262744304962  9.655834396115653 7.250023800015077  9.96484375 7.25  L 10.609375 7.25  C 10.992187500000002 7.25  11.296875000000002 6.91796875  11.246093750000002 6.546875  C 11.099978728514966 5.4444901327183155  10.59798904936601 4.4199374269143  9.816406250000002 3.628906249999999  C 9.256775842542517 3.0613781047981696  8.895122051288071 2.3284812172181386  8.785156250000002 1.5390625  C 8.739999608394884 1.2272886400514915  8.471262242076957 0.9969423260646973  8.15625 1  L 7.515625 1  C 7.1328125 1  6.83203125 1.33203125  6.878906249999998 1.703125  C 7.029341092298642 2.946957358005328  7.586942875270108 4.106109832950935  8.46484375 5  Z M 15.625 8.5  L 1.2500000000000002 8.5  C 0.5596440627115085 8.5  0 9.05964406271151  0 9.75  L 0 17.25  C 0 19.321067811865476  1.678932188134525 21  3.75 21  L 11.25 21  C 13.321067811865476 21  15 19.321067811865476  15 17.25  L 15.625 17.249999999999996  C 18.04124571531714 17.249999999999996  19.99999993480742 15.291245780509719  19.99999993480742 12.874999999999998  C 19.99999993480742 10.458754219490276  18.04124571531714 8.5  15.62499993480742 8.5  Z M 15.625 14.749999999999998  L 15 14.749999999999998  L 15 11  L 15.624999999999998 11  C 16.660533905932734 11  17.499999999999996 11.839466094067262  17.499999999999996 12.875  C 17.499999999999996 13.910533905932738  16.660533905932734 14.749999999999998  15.624999999999998 14.749999999999998  Z " fill-rule="nonzero" fill="#ffffff" stroke="none" transform="matrix(1 0 0 1 14 179 )" />
  </g>
</svg>