<?xml version="1.0" encoding="utf-8"?>
<svg version="1.1" xmlns:xlink="http://www.w3.org/1999/xlink" width="20px" height="18px" xmlns="http://www.w3.org/2000/svg">
  <g transform="matrix(1 0 0 1 -14 -119 )">
    <path d="M 20 8.375  C 20 3.8875  15.523046874999999 0.2500000000000002  10 0.2500000000000002  C 4.47734375 0.2500000000000002  0 3.8875  0 8.375  C 0 10.3109375  0.836328125 12.0859375  2.2265625 13.48203125  C 1.73671875 15.447265625  0.10546875 17.203125  0.0859375 17.22265625  C 0.030991237942739145 17.280694126361226  0.00036991067011056533 17.357578464658115  0.00036991067011056533 17.43750021893432  C 0.00036991067011056533 17.609944761821325  0.14005557792588824 17.749795874955467  0.3125 17.75  C 2.90078125 17.75  4.84375 16.509765625  5.8046875 15.74296875  C 7.146156029448863 16.24578617001982  8.567394633385225 16.502244309165878  10 16.5  C 15.523046874999999 16.5  20 12.8625  20 8.375  Z M 13.75 7.4375  L 13.75 9.3125  C 13.75 9.485088984322122  13.610088984322124 9.625  13.4375 9.625  L 11.25 9.625  L 11.25 11.8125  C 11.25 11.985088984322124  11.110088984322124 12.125  10.9375 12.125  L 9.0625 12.125  C 8.889911015677876 12.125  8.75 11.985088984322124  8.75 11.8125  L 8.75 9.625  L 6.5625 9.625  C 6.389911015677877 9.625  6.25 9.485088984322122  6.25 9.3125  L 6.25 7.4375  C 6.25 7.2649110156778764  6.389911015677877 7.125  6.5625 7.125  L 8.75 7.125  L 8.75 4.9375  C 8.75 4.764911015677877  8.889911015677876 4.625  9.0625 4.625  L 10.9375 4.625  C 11.110088984322124 4.625  11.25 4.764911015677877  11.25 4.9375  L 11.25 7.125  L 13.4375 7.125  C 13.610088984322124 7.125  13.75 7.2649110156778764  13.75 7.4375  Z " fill-rule="nonzero" fill="#ffffff" stroke="none" transform="matrix(1 0 0 1 14 119 )" />
  </g>
</svg>