<?xml version="1.0" encoding="utf-8"?>
<svg version="1.1" xmlns:xlink="http://www.w3.org/1999/xlink" width="20px" height="16px" xmlns="http://www.w3.org/2000/svg">
  <g transform="matrix(1 0 0 1 -14 -80 )">
    <path d="M 10.266119395394417 4.25848450655325  C 10.111096772635225 4.133528281613208  9.889938302270306 4.133528281613208  9.73491567951111 4.25848450655325  L 3.3337373071316985 9.530596302404305  L 3.3337373071316985 15.220727367416025  C 3.3337373071316985 15.527525596642402  3.582446331495104 15.7762347018488  3.889244460996593 15.7762347018488  L 7.779877689877849 15.766166131412206  C 8.085590567930627 15.764637547441545  8.332611129455925 15.5163755958642  8.332607307973417 15.21065879697943  L 8.332607307973417 11.887683360819373  C 8.332607307973417 11.580885131592998  8.581316332336822 11.332176026386598  8.888114461838313 11.332176026386598  L 11.110143077297892 11.332176026386598  C 11.41694120679938 11.332176026386598  11.665650231162788 11.580885131592998  11.665650231162788 11.887683360819373  L 11.665650231162788 15.208228452391289  C 11.665648417230326 15.208808005406777  11.66564751026243 15.209387560905792  11.66564751026243 15.209967116759973  C 11.66564751026243 15.516088691240906  11.913301440251304 15.764516616721888  12.219421425171852 15.765471747244167  L 12.221851768970012 15.765471747244167  L 16.110401846024274 15.7762347018488  C 16.417199975525765 15.7762347018488  16.66590899988917 15.527525596642402  16.66590899988917 15.220727367416025  L 16.66590899988917 9.52677718948008  L 10.266119395394417 4.25848450655325  Z M 19.84792341562152 7.843589966148773  L 19.84618745576569 7.841854005728669  L 16.943662576821616 5.449353354743512  L 16.943662576821616 0.6403957989757831  C 16.943662576821616 0.41029712705600074  16.757130808549064 0.22376529815120172  16.527032211422945 0.22376529815120172  L 14.582757172895812 0.22376529815120172  C 14.352658575769691 0.22376529815120172  14.166126807497141 0.41029712705600074  14.166126807497141 0.6403957989757831  L 14.166126807497141 3.1613575210485205  L 11.057717089651891 0.6039406301536321  C 10.442518091979085 0.09769446432281903  9.55504506321479 0.09769446432281859  8.939846065541982 0.6039406301536321  L 0.15137569942818374 7.841854005728669  C -0.025831963694269 7.988480000820591  -0.050697628865921385 8.250968264110751  0.09582498404169429 8.428261435639268  L 0.9811645105138699 9.50455689610277  C 1.1273807796222381 9.682197630993153  1.389911629502112 9.70768908947472  1.5675717498124995 9.561496397882129  L 9.73491567951111 2.8349969620692645  C 9.889938302270306 2.7100407371292228  10.111096772635225 2.7100407371292228  10.266119395394417 2.8349969620692645  L 18.43311613312186 9.561496397882129  C 18.50785150201653 9.62340864448119  18.60185586696257 9.6572884618126  18.698904819305433 9.6572884618126  C 18.823046025620854 9.6572884618126  18.94072072705161 9.60192939922774  19.01987056439166 9.506292856522872  L 19.905210090863832 8.429997396059369  C 20.051320466234543 8.252245492455218  20.025672521846552 7.989703721835243  19.84792341562152 7.843589966148773  Z " fill-rule="nonzero" fill="#ffffff" stroke="none" transform="matrix(1 0 0 1 14 80 )" />
  </g>
</svg>