<?xml version="1.0" encoding="utf-8"?>
<svg version="1.1" xmlns:xlink="http://www.w3.org/1999/xlink" width="18px" height="20px" xmlns="http://www.w3.org/2000/svg">
  <g transform="matrix(1 0 0 1 -15 -78 )">
    <path d="M 0.2500000000000002 7.96875  C 0.2500000000000002 7.709866523516816  0.4598665235168158 7.5  0.7187500000000002 7.5  L 17.281249999999996 7.5  C 17.540133476483184 7.5  17.749999999999996 7.709866523516816  17.75 7.96875  L 17.749999999999996 18.125  C 17.749999999999996 19.160533905932734  16.910533905932734 20  15.875 20  L 2.125 20  C 1.0894660940672622 20  0.2500000000000002 19.160533905932734  0.2500000000000002 18.125  L 0.2500000000000002 7.96875  Z M 17.281249999999996 6.25  C 17.540133476483184 6.25  17.749999999999996 6.0401334764831835  17.75 5.78125  L 17.749999999999996 4.374999999999999  C 17.749999999999996 3.3394660940672614  16.910533905932734 2.5  15.875 2.5  L 14 2.5  L 14 0.46875  C 14 0.20986652351681556  13.790133476483184 0  13.53125 0  L 11.96875 0  C 11.709866523516816 0  11.5 0.20986652351681556  11.5 0.46875  L 11.5 2.5  L 6.5 2.5  L 6.5 0.46875  C 6.5 0.20986652351681556  6.2901334764831835 0  6.03125 0  L 4.46875 0  C 4.209866523516816 0  4 0.20986652351681556  4 0.46875  L 4 2.5  L 2.125 2.5  C 1.0894660940672631 2.5  0.2500000000000002 3.3394660940672622  0.2500000000000002 4.375  L 0.2500000000000002 5.78125  C 0.2500000000000002 6.0401334764831835  0.4598665235168158 6.25  0.7187500000000002 6.25  L 17.281249999999996 6.25  Z " fill-rule="nonzero" fill="#ffffff" stroke="none" transform="matrix(1 0 0 1 15 78 )" />
  </g>
</svg>