<?xml version="1.0" encoding="utf-8"?>
<svg version="1.1" xmlns:xlink="http://www.w3.org/1999/xlink" width="20px" height="20px" xmlns="http://www.w3.org/2000/svg">
  <g transform="matrix(1 0 0 1 -14 -128 )">
    <path d="M 4.375 5.625  C 4.375 8.731601717798213  6.893398282201787 11.25  10 11.25  C 13.106601717798213 11.25  15.625 8.731601717798213  15.625 5.625  C 15.625 2.5183982822017867  13.106601717798213 0  10 0  C 6.893398282201787 0  4.375 2.5183982822017867  4.375 5.625  Z M 20 17.5  C 20 14.738576250846034  17.761423749153966 12.5  15 12.5  L 12.84765625 12.5  C 11.040662800805059 13.333308622780839  8.959337199194945 13.333308622780839  7.152343749999998 12.5  L 5.000000000000001 12.5  C 2.238576250846034 12.5  0 14.738576250846034  0 17.5  L 0 18.125  C 0 19.160533905932734  0.8394660940672631 20  1.8750000000000009 20  L 18.125 20  C 19.160533905932734 20  20 19.160533905932734  20 18.125  L 20 17.5  Z " fill-rule="nonzero" fill="#ffffff" stroke="none" transform="matrix(1 0 0 1 14 128 )" />
  </g>
</svg>