<?xml version="1.0" encoding="utf-8"?>
<svg version="1.1" xmlns:xlink="http://www.w3.org/1999/xlink" width="12px" height="12px" xmlns="http://www.w3.org/2000/svg">
  <g transform="matrix(1 0 0 1 -203 -6 )">
    <path d="M 11.25 1.875  C 11.25 1.25390625  10.74609375 0.75  10.125 0.75  L 1.8749999999999996 0.75  C 1.2539062499999996 0.75  0.7499999999999997 1.25390625  0.7499999999999997 1.875  L 0.7499999999999997 10.125  C 0.7499999999999997 10.74609375  1.2539062499999996 11.25  1.8749999999999996 11.25  L 10.125 11.25  C 10.74609375 11.25  11.25 10.74609375  11.25 10.125  L 11.25 1.875  Z M 4.5 5.625  L 4.5 8.625  C 4.5 8.8321875  4.3321875 9  4.125 9  L 3.374999999999999 9  C 3.1678125 9  2.9999999999999996 8.8321875  2.9999999999999996 8.625  L 2.9999999999999996 5.625  C 2.9999999999999996 5.4178125  3.1678125 5.25  3.374999999999999 5.25  L 4.125 5.25  C 4.3321875 5.25  4.5 5.4178125  4.5 5.625  Z M 6.75 3.375  L 6.75 8.625  C 6.75 8.8321875  6.5821875 9  6.375 9  L 5.625 9  C 5.4178125 9  5.25 8.8321875  5.25 8.625  L 5.25 3.375  C 5.25 3.1678125  5.4178125 3  5.625 3  L 6.375 3  C 6.5821875 3  6.75 3.1678125  6.75 3.375  Z M 9 7.125  L 9 8.625  C 9 8.8321875  8.8321875 9  8.625 9  L 7.875 9  C 7.6678125 9  7.5 8.8321875  7.5 8.625  L 7.5 7.125  C 7.5 6.9178125  7.6678125 6.75  7.875 6.75  L 8.625 6.75  C 8.8321875 6.75  9 6.9178125  9 7.125  Z " fill-rule="nonzero" fill="#ffffff" stroke="none" transform="matrix(1 0 0 1 203 6 )" />
  </g>
</svg>