<?xml version="1.0" encoding="UTF-8"?>
<svg width="40px" height="40px" viewBox="0 0 40 40" version="1.1" xmlns="http://www.w3.org/2000/svg" xmlns:xlink="http://www.w3.org/1999/xlink">
    <!-- Generator: sketchtool 63.1 (101010) - https://sketch.com -->
    <title>6D0362DC-DBF6-40EC-BD08-3516D71DEC24</title>
    <desc>Created with sketchtool.</desc>
    <g id="Master" stroke="none" stroke-width="1" fill="none" fill-rule="evenodd">
        <g id="alert-banners" transform="translate(-74.000000, -399.000000)" fill="#2C9FD0">
            <g id="banner-information-lg" transform="translate(58.000000, 383.000000)">
                <g id="indicator" transform="translate(16.000000, 16.000000)">
                    <path d="M20,0 C31.045695,0 40,8.954305 40,20 C40,31.045695 31.045695,40 20,40 C8.954305,40 0,31.045695 0,20 C0,8.954305 8.954305,0 20,0 Z M20,17 L19.8240631,17.0050917 C18.2520548,17.0963206 17,18.4020492 17,19.9994225 L17,19.9994225 L17,29.0005775 C17,30.6556493 18.3431458,32 20,32 L20,32 L20.1759369,31.9949083 C21.7479452,31.9036794 23,30.5979508 23,29.0005775 L23,29.0005775 L23,19.9994225 C23,18.3443507 21.6568542,17 20,17 L20,17 Z M20,9 L19.8240631,9.00509269 C18.2520548,9.09633912 17,10.4023191 17,12 C17,13.6534829 18.3431458,15 20,15 L20,15 L20.1759369,14.9949073 C21.7479452,14.9036609 23,13.5976809 23,12 L23,12 L22.9949073,11.8240631 C22.9036609,10.2520548 21.5976809,9 20,9 L20,9 Z" id="Combined-Shape-Copy-3"></path>
                </g>
            </g>
        </g>
    </g>
</svg>