<svg id="Layer_1" data-name="Layer 1" xmlns="http://www.w3.org/2000/svg" viewBox="0 0 576 448"><defs><style>.cls-1{fill:#fff;}</style></defs><path class="cls-1" d="M416,192c0-88.4-93.1-160-208-160S0,103.6,0,192c0,34.3,14.1,65.9,38,92C24.6,314.2,2.5,338.2,2.2,338.5a8,8,0,0,0-1.5,8.7A7.83,7.83,0,0,0,8,352c36.6,0,66.9-12.3,88.7-25,32.2,15.7,70.3,25,111.3,25C322.9,352,416,280.4,416,192ZM538,412c23.9-26,38-57.7,38-92,0-66.9-53.5-124.2-129.3-148.1A148.61,148.61,0,0,1,448,192c0,105.9-107.7,192-240,192a299.82,299.82,0,0,1-31.7-1.9C207.8,439.6,281.8,480,368,480c41,0,79.1-9.2,111.3-25,21.8,12.7,52.1,25,88.7,25a7.88,7.88,0,0,0,7.3-4.8,8,8,0,0,0-1.5-8.7C573.5,466.2,551.4,442.3,538,412Z" transform="translate(0 -32)"/></svg>