<svg id="Layer_1" data-name="Layer 1" xmlns="http://www.w3.org/2000/svg" viewBox="0 0 662.05 512"><defs><style>.cls-1{fill:#fff;}</style></defs><path class="cls-1" d="M257.5,445.1l-22.2,22.2a23.9,23.9,0,0,1-33.9,0L7,273a23.9,23.9,0,0,1,0-33.9L201.4,44.7a23.9,23.9,0,0,1,33.9,0l22.2,22.2a24,24,0,0,1-.4,34.3L136.6,216H424a23.94,23.94,0,0,1,24,24v32a23.94,23.94,0,0,1-24,24H136.6L257.1,410.8a23.85,23.85,0,0,1,.4,34.3Z" transform="translate(0.05 -0.39)"/><path class="cls-1" d="M534,496.39v-480a16,16,0,0,0-16-16H486a16,16,0,0,0-16,16v480a16,16,0,0,0,16,16h32A16,16,0,0,0,534,496.39Zm128,0v-480a16,16,0,0,0-16-16H614a16,16,0,0,0-16,16v480a16,16,0,0,0,16,16h32A16,16,0,0,0,662,496.39Z" transform="translate(0.05 -0.39)"/></svg>