<?xml version="1.0" encoding="utf-8"?>
<svg version="1.1" xmlns:xlink="http://www.w3.org/1999/xlink" width="20px" height="20px" xmlns="http://www.w3.org/2000/svg">
  <g transform="matrix(1 0 0 1 -11 -97 )">
    <path d="M 4.375 5.625  C 4.375 8.73046875  6.89453125 11.25  10 11.25  C 13.10546875 11.25  15.625 8.73046875  15.625 5.625  C 15.625 2.51953125  13.10546875 0  10 0  C 6.89453125 0  4.375 2.51953125  4.375 5.625  Z M 20 17.5  C 20 14.73828125  17.76171875 12.5  15 12.5  L 12.84765625 12.5  C 11.98046875 12.8984375  11.015625 13.125  9.999999999999998 13.125  C 8.984374999999998 13.125  8.0234375 12.8984375  7.152343749999998 12.5  L 5 12.5  C 2.23828125 12.5  0 14.73828125  0 17.5  L 0 18.125  C 0 19.16015625  0.83984375 20  1.875 20  L 18.125 20  C 19.16015625 20  20 19.16015625  20 18.125  L 20 17.5  Z " fill-rule="nonzero" fill="#4a5568" stroke="none" transform="matrix(1 0 0 1 11 97 )" />
  </g>
</svg>