<?xml version="1.0" encoding="utf-8"?>
<svg version="1.1" xmlns:xlink="http://www.w3.org/1999/xlink" width="19px" height="20px" xmlns="http://www.w3.org/2000/svg">
  <g transform="matrix(1 0 0 1 -15 -20 )">
    <path d="M 18.7365234375 17.904897836538463  C 19.085351562499998 17.551832932692307  19.085351562499998 16.980919471153847  18.740234375 16.627854567307693  L 15.0404296875 12.883112980769232  C 14.8734375 12.714092548076923  14.6470703125 12.620192307692308  14.4095703125 12.620192307692308  L 13.8046875 12.620192307692308  C 14.828906250000001 11.294320913461537  15.4375 9.626652644230768  15.4375 7.8125  C 15.4375 3.496844951923077  11.982617187499999 0  7.71875 0  C 3.454882812500001 0  0 3.496844951923077  0 7.8125  C 0 12.12815504807692  3.4548828124999997 15.625  7.71875 15.625  C 9.5111328125 15.625  11.1587890625 15.009014423076923  12.46875 13.972355769230768  L 12.46875 14.584585336538463  C 12.46875 14.824969951923077  12.5615234375 15.054086538461537  12.728515625 15.223106971153847  L 16.4283203125 18.967848557692307  C 16.7771484375 19.320913461538463  17.3412109375 19.320913461538463  17.686328125 18.967848557692307  L 18.7365234375 17.904897836538463  Z M 12.46875 7.8125  C 12.46875 10.467998798076923  10.34609375 12.620192307692308  7.71875 12.620192307692308  C 5.0951171875000005 12.620192307692308  2.96875 10.471754807692308  2.96875 7.8125  C 2.96875 5.157001201923077  5.0914062499999995 3.004807692307692  7.71875 3.004807692307692  C 10.3423828125 3.004807692307692  12.46875 5.153245192307692  12.46875 7.8125  Z " fill-rule="nonzero" fill="#ffffff" stroke="none" transform="matrix(1 0 0 1 15 20 )" />
  </g>
</svg>