<?xml version="1.0" encoding="utf-8"?>
<svg version="1.1" xmlns:xlink="http://www.w3.org/1999/xlink" width="20px" height="14px" xmlns="http://www.w3.org/2000/svg">
  <g transform="matrix(1 0 0 1 -11 -200 )">
    <path d="M 4.444444444444445 10.333333333333334  L 4.444444444444445 3.666666666666666  L 15.555555555555557 3.666666666666666  L 15.555555555555557 10.333333333333334  L 4.444444444444445 10.333333333333334  Z M 20 5.333333333333332  C 19.07951388888889 5.333333333333332  18.333333333333336 6.07951388888889  18.333333333333336 7  C 18.333333333333336 7.92048611111111  19.07951388888889 8.666666666666666  20 8.666666666666666  L 20 12  C 20 12.920486111111112  19.253819444444446 13.666666666666668  18.333333333333336 13.666666666666668  L 1.666666666666667 13.666666666666668  C 0.7461805555555555 13.666666666666668  0 12.920486111111112  0 12  L 0 8.666666666666666  C 0.9204861111111112 8.666666666666666  1.666666666666667 7.92048611111111  1.666666666666667 7  C 1.666666666666667 6.07951388888889  0.9204861111111112 5.333333333333332  0 5.333333333333332  L 0 2  C 0 1.0795138888888882  0.7461805555555555 0.33333333333333304  1.666666666666667 0.33333333333333304  L 18.333333333333336 0.33333333333333304  C 19.253819444444446 0.33333333333333304  20 1.0795138888888882  20 2  L 20 5.333333333333332  Z M 16.666666666666668 10.61111111111111  L 16.666666666666668 3.3888888888888884  C 16.666666666666668 2.9286458333333334  16.29357638888889 2.5555555555555554  15.833333333333336 2.5555555555555554  L 4.166666666666667 2.5555555555555554  C 3.7064236111111115 2.5555555555555554  3.333333333333334 2.9286458333333334  3.333333333333334 3.3888888888888884  L 3.333333333333334 10.61111111111111  C 3.333333333333334 11.071354166666667  3.7064236111111115 11.444444444444445  4.166666666666667 11.444444444444445  L 15.833333333333336 11.444444444444445  C 16.29357638888889 11.444444444444445  16.666666666666668 11.071354166666667  16.666666666666668 10.61111111111111  Z " fill-rule="nonzero" fill="#4a5568" stroke="none" transform="matrix(1 0 0 1 11 200 )" />
  </g>
</svg>