<?xml version="1.0" encoding="utf-8"?>
<svg version="1.1" xmlns:xlink="http://www.w3.org/1999/xlink" width="20px" height="16px" xmlns="http://www.w3.org/2000/svg">
  <g transform="matrix(1 0 0 1 -183 -384 )">
    <path d="M 19.4140625 7.3359375  C 19.77734375 7.703125  19.77734375 8.296875  19.4140625 8.6640625  L 12.8515625 15.2265625  C 12.265625 15.8125  11.25 15.40234375  11.25 14.5625  L 11.25 10.8125  L 5.9375 10.8125  C 5.41796875 10.8125  5 10.39453125  5 9.875  L 5 6.125  C 5 5.60546875  5.41796875 5.1875  5.9375 5.1875  L 11.25 5.1875  L 11.25 1.4375  C 11.25 0.6015625  12.26171875 0.1875  12.8515625 0.7734375  L 19.4140625 7.3359375  Z M 7.03125 15.5  C 7.2890625 15.5  7.5 15.2890625  7.5 15.03125  L 7.5 13.46875  C 7.5 13.2109375  7.2890625 13  7.03125 13  L 3.75 13  C 3.05859375 13  2.5 12.44140625  2.5 11.75  L 2.5 4.25  C 2.5 3.55859375  3.05859375 3  3.75 3  L 7.03125 3  C 7.2890625 3  7.5 2.7890625  7.5 2.53125  L 7.5 0.96875  C 7.5 0.7109375  7.2890625 0.5  7.03125 0.5  L 3.75 0.5  C 1.6796875 0.5  0 2.1796875  0 4.25  L 0 11.75  C 0 13.8203125  1.6796875 15.5  3.75 15.5  L 7.03125 15.5  Z " fill-rule="nonzero" fill="#4a5568" stroke="none" transform="matrix(1 0 0 1 183 384 )" />
  </g>
</svg>