<?xml version="1.0" encoding="utf-8"?>
<svg version="1.1" xmlns:xlink="http://www.w3.org/1999/xlink" width="18px" height="20px" xmlns="http://www.w3.org/2000/svg">
  <g transform="matrix(1 0 0 1 -12 -382 )">
    <path d="M 0.0629296875000005 10  C 0.0629296875000005 15.519882812499999  4.536015625 20  10.0629296875 20  C 13.147382812500002 20  15.964453125000002 18.5966796875  17.83078125 16.2971875  C 18.106875 15.957031249999998  17.8058203125 15.460078124999999  17.379140624999998 15.541328124999998  C 12.527460937499999 16.465312499999996  8.072031249999998 12.745390624999997  8.072031249999998 7.847812499999998  C 8.072031249999998 5.026640624999999  9.582265624999998 2.432382812499998  12.036796874999999 1.0355468749999974  C 12.415156249999997 0.8202343749999974  12.32 0.24660156249999746  11.890078124999999 0.1671874999999974  C 11.287374399339079 0.05605199834532921  10.67579416870659 9.126318537183614E-05  10.0629296875 0  C 4.543046875000001 0  0.0629296875000005 4.4730859375  0.0629296875000005 10  Z " fill-rule="nonzero" fill="#4a5568" stroke="none" transform="matrix(1 0 0 1 12 382 )" />
  </g>
</svg>