<?xml version="1.0" encoding="utf-8"?>
<svg version="1.1" xmlns:xlink="http://www.w3.org/1999/xlink" width="20px" height="18px" xmlns="http://www.w3.org/2000/svg">
  <g transform="matrix(1 0 0 1 -11 -322 )">
    <path d="M 20 14.625  C 20 14.28125  19.71875 14  19.375 14  L 6.25 14  L 6.25 13.375  C 6.25 13.03125  5.96875 12.75  5.625 12.75  L 4.375 12.75  C 4.03125 12.75  3.75 13.03125  3.75 13.375  L 3.75 14  L 0.625 14  C 0.28125 14  0 14.28125  0 14.625  L 0 15.875  C 0 16.21875  0.28125 16.5  0.625 16.5  L 3.75 16.5  L 3.75 17.125  C 3.75 17.46875  4.03125 17.75  4.375 17.75  L 5.625 17.75  C 5.96875 17.75  6.25 17.46875  6.25 17.125  L 6.25 16.5  L 19.375 16.5  C 19.71875 16.5  20 16.21875  20 15.875  L 20 14.625  Z M 20 8.375  C 20 8.03125  19.71875 7.75  19.375 7.75  L 16.25 7.75  L 16.25 7.125  C 16.25 6.78125  15.96875 6.5  15.625 6.5  L 14.375 6.5  C 14.03125 6.5  13.75 6.78125  13.75 7.125  L 13.75 8  L 0.625 8  C 0.28125 7.75  0 8.03125  0 8.375  L 0 9.625  C 0 9.96875  0.28125 10.25  0.625 10  L 13.75 10  L 13.75 10.875  C 13.75 11.21875  14.03125 11.5  14.375 11.5  L 15.625 11.5  C 15.96875 11.5  16.25 11.21875  16.25 10.875  L 16.25 10.25  L 19.375 10.25  C 19.71875 10.25  20 9.96875  20 9.625  L 20 8.375  Z M 20 2.125  C 20 1.78125  19.71875 1.5  19.375 1.5  L 11.25 1.5  L 11.25 0.875  C 11.25 0.53125  10.96875 0.25  10.625 0.25  L 9.375 0.25  C 9.03125 0.25  8.75 0.53125  8.75 0.875  L 8.75 1.5  L 0.625 1.5  C 0.28125 1.5  0 1.78125  0 2.125  L 0 3.375  C 0 3.71875  0.28125 4  0.625 4  L 8.75 4  L 8.75 4.625  C 8.75 4.96875  9.03125 5.25  9.375 5.25  L 10.625 5.25  C 10.96875 5.25  11.25 4.96875  11.25 4.625  L 11.25 4  L 19.375 4  C 19.71875 4  20 3.71875  20 3.375  L 20 2.125  Z " fill-rule="nonzero" fill="#4a5568" stroke="none" transform="matrix(1 0 0 1 11 322 )" />
  </g>
</svg>