<?xml version="1.0" encoding="utf-8"?>
<svg version="1.1" xmlns:xlink="http://www.w3.org/1999/xlink" width="20px" height="21px" xmlns="http://www.w3.org/2000/svg">
  <g transform="matrix(1 0 0 1 -813 -90 )">
    <path d="M 20 2.6535326086956523  C 19.94318181818182 1.4721042798913042  18.988813920454547 0.5135869565217391  17.8125 0.5135869565217391  L 2.1875 0.5135869565217391  C 1.0111860795454544 0.5135869565217391  0.05681818181818162 1.4721042798913042  0 2.6535326086956523  L 0 18.346467391304348  C 0.05681818181818162 19.527895720108695  1.0111860795454544 20.486413043478258  2.1875 20.486413043478258  L 17.8125 20.486413043478258  C 18.988813920454547 20.486413043478258  19.94318181818182 19.527895720108695  20 18.346467391304348  L 20 2.6535326086956523  Z M 16.392045454545453 9.251698369565217  L 16.392045454545453 11.748301630434781  C 16.392045454545453 12.042544157608697  16.15234375 12.28328804347826  15.859375 12.28328804347826  L 11.775568181818182 12.28328804347826  L 11.775568181818182 16.384850543478258  C 11.775568181818182 16.679093070652176  11.53586647727273 16.919836956521742  11.242897727272727 16.919836956521742  L 8.757102272727273 16.919836956521742  C 8.464133522727273 16.919836956521742  8.224431818181818 16.679093070652176  8.224431818181818 16.384850543478258  L 8.224431818181818 12.28328804347826  L 4.140625 12.28328804347826  C 3.84765625 12.28328804347826  3.6079545454545454 12.042544157608697  3.6079545454545454 11.748301630434781  L 3.6079545454545454 9.251698369565217  C 3.6079545454545454 8.957455842391305  3.84765625 8.716711956521738  4.140625 8.716711956521738  L 8.224431818181818 8.716711956521738  L 8.224431818181818 4.615149456521739  C 8.224431818181818 4.320906929347826  8.464133522727273 4.080163043478261  8.757102272727273 4.080163043478261  L 11.242897727272727 4.080163043478261  C 11.53586647727273 4.080163043478261  11.775568181818182 4.320906929347826  11.775568181818182 4.615149456521739  L 11.775568181818182 8.716711956521738  L 15.859375 8.716711956521738  C 16.15234375 8.716711956521738  16.392045454545453 8.957455842391305  16.392045454545453 9.251698369565217  Z " fill-rule="nonzero" fill="#ffffff" stroke="none" transform="matrix(1 0 0 1 813 90 )" />
  </g>
</svg>