<?xml version="1.0" encoding="utf-8"?>
<svg version="1.1" xmlns:xlink="http://www.w3.org/1999/xlink" width="24px" height="24px" xmlns="http://www.w3.org/2000/svg">
  <g transform="matrix(1 0 0 1 -18 -18 )">
    <path d="M 23.454545454545453 11.181818181818182  C 23.454545454545453 10.278238636363637  22.721761363636364 9.545454545454545  21.818181818181817 9.545454545454545  L 14.454545454545455 9.545454545454545  L 14.454545454545455 2.1818181818181817  C 14.454545454545455 1.2782386363636364  13.721761363636364 0.5454545454545454  12.818181818181817 0.5454545454545454  L 11.181818181818182 0.5454545454545454  C 10.278238636363637 0.5454545454545454  9.545454545454545 1.2782386363636364  9.545454545454545 2.1818181818181817  L 9.545454545454545 9.545454545454545  L 2.1818181818181808 9.545454545454545  C 1.2782386363636355 9.545454545454545  0.5454545454545447 10.278238636363637  0.5454545454545447 11.181818181818182  L 0.5454545454545447 12.818181818181817  C 0.5454545454545447 13.721761363636364  1.2782386363636355 14.454545454545455  2.1818181818181808 14.454545454545455  L 9.545454545454545 14.454545454545455  L 9.545454545454545 21.818181818181817  C 9.545454545454545 22.721761363636364  10.278238636363637 23.454545454545453  11.181818181818182 23.454545454545453  L 12.818181818181817 23.454545454545453  C 13.721761363636364 23.454545454545453  14.454545454545455 22.721761363636364  14.454545454545455 21.818181818181817  L 14.454545454545455 14.454545454545455  L 21.818181818181817 14.454545454545455  C 22.721761363636364 14.454545454545455  23.454545454545453 13.721761363636364  23.454545454545453 12.818181818181817  L 23.454545454545453 11.181818181818182  Z " fill-rule="nonzero" fill="#ffffff" stroke="none" transform="matrix(1 0 0 1 18 18 )" />
  </g>
</svg>