<?xml version="1.0" encoding="utf-8"?>
<svg version="1.1" xmlns:xlink="http://www.w3.org/1999/xlink" width="100px" height="100px" xmlns="http://www.w3.org/2000/svg">
  <g transform="matrix(1 0 0 1 -867 -417 )">
    <path d="M 100 50  C 100 22.379032258064516  77.62096774193549 0  50 0  C 22.379032258064516 0  0 22.379032258064516  0 50  C 0 77.62096774193549  22.379032258064516 100  50 100  C 77.62096774193549 100  100 77.62096774193549  100 50  Z M 73.32661290322581 46.37096774193548  C 76.63306451612902 48.225806451612904  76.63306451612902 53.00403225806451  73.32661290322581 54.83870967741935  L 37.84274193548387 75.20161290322581  C 34.65725806451612 76.97580645161291  30.64516129032258 74.69758064516128  31 70.96774193548387  L 31 29.03225806451613  C 30.64516129032258 25.322580645161292  34.63709677419355 23.0241935483871  37.84274193548387 24.798387096774192  L 73.32661290322581 46.37096774193548  Z " fill-rule="nonzero" fill="#ffffff" stroke="none" transform="matrix(1 0 0 1 867 417 )" />
  </g>
</svg>