<?xml version="1.0" encoding="utf-8"?>
<svg version="1.1" xmlns:xlink="http://www.w3.org/1999/xlink" width="25px" height="24px" xmlns="http://www.w3.org/2000/svg">
  <g transform="matrix(1 0 0 1 -1062 -358 )">
    <path d="M 16.875 4.5  C 17.039930555555557 4.335069444444445  17.30902777777778 4.335069444444445  17.473958333333332 4.5  L 21.38888888888889 8.414930555555557  C 21.553819444444446 8.57986111111111  21.553819444444446 8.848958333333334  21.38888888888889 9.01388888888889  L 11.909722222222221 18.493055555555557  L 7.881944444444443 18.940104166666668  C 7.343749999999999 19.000868055555557  6.888020833333332 18.54513888888889  6.9487847222222205 18.006944444444446  L 7.395833333333332 13.979166666666668  L 16.875 4.5  Z M 24.505208333333332 5.901909722222221  C 25.16493055555556 5.237847222222221  25.16493055555556 4.165798611111111  24.505208333333332 3.5060763888888893  L 22.38715277777778 1.388020833333334  C 21.727430555555557 0.7282986111111116  20.655381944444446 0.7282986111111116  19.991319444444446 1.388020833333334  L 18.454861111111114 2.924479166666668  C 18.289930555555557 3.089409722222223  18.289930555555557 3.3585069444444446  18.454861111111114 3.5234375  L 22.36979166666667 7.438368055555557  C 22.534722222222225 7.603298611111111  22.803819444444446 7.603298611111111  22.96875 7.438368055555557  L 24.505208333333332 5.901909722222221  Z M 16.81857638888889 15.546006944444443  C 16.72309027777778 15.645833333333336  16.666666666666664 15.776041666666664  16.666666666666664 15.914930555555557  L 16.666666666666664 20  L 3 20  L 3 6.444444444444445  L 12.75173611111111 6.444444444444445  C 12.890625 6.444444444444445  13.020833333333332 6.388020833333334  13.120659722222221 6.292534722222221  L 14.856770833333332 4.556423611111111  C 15.186631944444445 4.2265625  14.952256944444445 3.666666666666668  14.487847222222221 4  L 2.083333333333333 4  C 0.9331597222222222 3.666666666666668  0 4.599826388888889  0 5.75  L 0 21.02777777777778  C 0 22.17795138888889  0.9331597222222222 23.11111111111111  2.083333333333333 23  L 17.36111111111111 23  C 18.51128472222222 23.11111111111111  19.444444444444443 22.17795138888889  19.444444444444443 21.02777777777778  L 19.444444444444443 14.178819444444443  C 19.444444444444443 13.714409722222221  18.88454861111111 13.484375  18.5546875 13.809895833333332  L 16.81857638888889 15.546006944444443  Z " fill-rule="nonzero" fill="#ffffff" stroke="none" transform="matrix(1 0 0 1 1062 358 )" />
  </g>
</svg>