<?xml version="1.0" encoding="utf-8"?>
<svg version="1.1" xmlns:xlink="http://www.w3.org/1999/xlink" width="20px" height="18px" xmlns="http://www.w3.org/2000/svg">
  <g transform="matrix(1 0 0 1 -580 -75 )">
    <path d="M 13.5 3  C 13.631944444444446 2.8680555555555554  13.847222222222225 2.8680555555555554  13.979166666666668 3  L 17.11111111111111 6.131944444444445  C 17.243055555555557 6.263888888888889  17.243055555555557 6.479166666666667  17.11111111111111 6.611111111111112  L 9.527777777777777 14.194444444444446  L 6.3055555555555545 14.552083333333334  C 5.874999999999999 14.600694444444445  5.510416666666665 14.236111111111114  5.559027777777777 13.805555555555557  L 5.916666666666666 10.583333333333334  L 13.5 3  Z M 19.604166666666668 4.121527777777778  C 20.131944444444446 3.5902777777777777  20.131944444444446 2.7326388888888884  19.604166666666668 2.204861111111111  L 17.909722222222225 0.5104166666666665  C 17.381944444444446 -0.01736111111111127  16.52430555555556 -0.01736111111111127  15.99305555555556 0.5104166666666665  L 14.763888888888893 1.739583333333333  C 14.63194444444445 1.8715277777777777  14.63194444444445 2.0868055555555554  14.763888888888893 2.21875  L 17.895833333333336 5.350694444444445  C 18.02777777777778 5.482638888888889  18.24305555555556 5.482638888888889  18.375000000000004 5.350694444444445  L 19.604166666666668 4.121527777777778  Z M 13.45486111111111 11.836805555555555  C 13.378472222222225 11.916666666666666  13.333333333333336 12.020833333333334  13.333333333333336 12.131944444444445  L 13.333333333333336 15.666666666666668  L 2.2222222222222223 15.666666666666668  L 2.2222222222222223 4.555555555555555  L 10.20138888888889 4.555555555555555  C 10.3125 4.555555555555555  10.416666666666668 4.510416666666667  10.496527777777779 4.434027777777778  L 11.885416666666668 3.0451388888888893  C 12.149305555555557 2.78125  11.961805555555555 2.333333333333333  11.590277777777779 2.333333333333333  L 1.666666666666667 2.333333333333333  C 0.7465277777777778 2.333333333333333  0 3.0798611111111107  0 4  L 0 16.22222222222222  C 0 17.14236111111111  0.7465277777777778 17.88888888888889  1.666666666666667 17.88888888888889  L 13.88888888888889 17.88888888888889  C 14.809027777777779 17.88888888888889  15.555555555555557 17.14236111111111  15.555555555555557 16.22222222222222  L 15.555555555555557 10.743055555555555  C 15.555555555555557 10.371527777777779  15.10763888888889 10.1875  14.84375 10.447916666666666  L 13.45486111111111 11.836805555555555  Z " fill-rule="nonzero" fill="#ffffff" stroke="none" transform="matrix(1 0 0 1 580 75 )" />
  </g>
</svg>