<?xml version="1.0" encoding="utf-8"?>
<svg version="1.1" xmlns:xlink="http://www.w3.org/1999/xlink" width="18px" height="19px" xmlns="http://www.w3.org/2000/svg">
  <g transform="matrix(1 0 0 1 -747 -74 )">
    <path d="M 17.502380859375002 14.62821521577381  L 12.401156250000001 9.5  L 17.502380859375002 4.3717847842261905  C 18.128373046874998 3.742480468750001  18.128373046874998 2.722167038690476  17.502380859375002 2.0923502604166675  L 16.368662109375 0.9526329985119059  C 15.742669921874999 0.32332868303571555  14.727726562499997 0.32332868303571555  14.101224609374995 0.9526329985119059  L 9 6.080848214285714  L 3.8987753906250004 0.9526329985119042  C 3.272783203125 0.32332868303571394  2.25783984375 0.32332868303571394  1.6313378906250005 0.9526329985119042  L 0.4976191406249998 2.092350260416667  C -0.12837304687500023 2.7216545758928574  -0.12837304687500023 3.74196800595238  0.4976191406249998 4.3717847842261905  L 5.59884375 9.5  L 0.4976191406249998 14.62821521577381  C -0.12837304687500023 15.257519531249999  -0.12837304687500023 16.277832961309525  0.4976191406249998 16.907649739583334  L 1.6313378906249996 18.047367001488094  C 2.2573300781249994 18.67667131696429  3.272783203125 18.67667131696429  3.8987753906249996 18.047367001488094  L 9 12.919151785714288  L 14.101224609374999 18.047367001488094  C 14.727216796874998 18.67667131696429  15.742669921874999 18.67667131696429  16.368662109375002 18.047367001488094  L 17.502380859375002 16.907649739583334  C 18.128373046875 16.278345424107147  18.128373046875 15.25803199404762  17.502380859375002 14.62821521577381  Z " fill-rule="nonzero" fill="#880643" stroke="none" transform="matrix(1 0 0 1 747 74 )" />
  </g>
</svg>