<?xml version="1.0" encoding="utf-8"?>
<svg version="1.1" xmlns:xlink="http://www.w3.org/1999/xlink" width="16px" height="16px" xmlns="http://www.w3.org/2000/svg">
  <g transform="matrix(1 0 0 1 -93 -433 )">
    <path d="M 15.777777777777779 7.444444444444445  C 15.777777777777779 6.830902777777776  15.280208333333333 6.333333333333333  14.666666666666666 6.333333333333333  L 9.666666666666666 6.333333333333333  L 9.666666666666666 1.3333333333333333  C 9.666666666666666 0.7197916666666665  9.169097222222224 0.2222222222222222  8.555555555555555 0.2222222222222222  L 7.444444444444445 0.2222222222222222  C 6.830902777777776 0.2222222222222222  6.333333333333333 0.7197916666666665  6.333333333333333 1.3333333333333333  L 6.333333333333333 6.333333333333333  L 1.3333333333333333 6.333333333333333  C 0.7197916666666669 6.333333333333333  0.22222222222222243 6.830902777777778  0.22222222222222243 7.444444444444445  L 0.22222222222222243 8.555555555555555  C 0.22222222222222243 9.169097222222224  0.7197916666666669 9.666666666666666  1.3333333333333333 9.666666666666666  L 6.333333333333333 9.666666666666666  L 6.333333333333333 14.666666666666666  C 6.333333333333333 15.280208333333333  6.830902777777778 15.777777777777779  7.444444444444445 15.777777777777779  L 8.555555555555555 15.777777777777779  C 9.169097222222224 15.777777777777779  9.666666666666666 15.280208333333333  9.666666666666666 14.666666666666666  L 9.666666666666666 9.666666666666666  L 14.666666666666666 9.666666666666666  C 15.280208333333333 9.666666666666666  15.777777777777779 9.169097222222224  15.777777777777779 8.555555555555555  L 15.777777777777779 7.444444444444445  Z " fill-rule="nonzero" fill="#880643" stroke="none" transform="matrix(1 0 0 1 93 433 )" />
  </g>
</svg>