<?xml version="1.0" encoding="utf-8"?>
<svg version="1.1" xmlns:xlink="http://www.w3.org/1999/xlink" width="20px" height="15px" xmlns="http://www.w3.org/2000/svg">
  <g transform="matrix(1 0 0 1 -39 -131 )">
    <path d="M 20 1.875  C 20 0.83984375  19.16015625 0  18.125 0  L 1.875 0  C 0.83984375 0  0 0.83984375  0 1.875  L 0 13.125  C 0 14.16015625  0.83984375 15  1.875 15  L 18.125 15  C 19.16015625 15  20 14.16015625  20 13.125  L 20 1.875  Z M 4.914062499999999 7.464843749999995  C 4.917968749999999 9.339843749999996  6.910156249999999 10.218749999999996  8.51953125 8.73828125  C 8.62890625 8.640625  8.796875 8.656249999999998  8.87890625 8.773437499999998  L 9.640625 9.855468749999998  C 9.707031249999998 9.949218749999996  9.69921875 10.07421875  9.62109375 10.156249999999998  C 7.52734375 12.374999999999998  2.871093749999999 11.410156249999998  2.871093749999999 7.5039062499999964  C 2.871093749999999 3.7031249999999964  7.625 2.8359374999999964  9.609374999999998 4.7656249999999964  C 9.691406249999998 4.8437499999999964  9.707031249999998 4.8906249999999964  9.648437499999998 4.9882812499999964  L 8.964843749999998 6.1796874999999964  C 8.890624999999998 6.3007812499999964  8.72265625 6.3359374999999964  8.609375 6.2460937499999964  C 7.015624999999998 4.996093749999996  4.914062499999999 5.6640624999999964  4.914062499999999 7.464843749999995  Z M 12.355468749999998 7.464843749999998  C 12.355468749999998 9.339843749999998  14.347656249999998 10.218749999999998  15.95703125 8.73828125  C 16.06640625 8.640625  16.234375 8.656249999999998  16.31640625 8.773437499999998  L 17.078125 9.855468749999998  C 17.14453125 9.949218749999996  17.13671875 10.07421875  17.05859375 10.156249999999998  C 14.96875 12.378906249999996  10.3125 11.410156249999998  10.3125 7.5039062499999964  C 10.3125 3.7031249999999964  15.06640625 2.8359374999999964  17.05078125 4.7656249999999964  C 17.1328125 4.8437499999999964  17.1484375 4.8906249999999964  17.08984375 4.9882812499999964  L 16.40625 6.1796875  C 16.33203125 6.30078125  16.1640625 6.3359375  16.05078125 6.24609375  C 14.457031249999998 4.996093749999999  12.355468749999998 5.664062499999998  12.355468749999998 7.464843749999998  Z " fill-rule="nonzero" fill="#5d6f83" stroke="none" transform="matrix(1 0 0 1 39 131 )" />
  </g>
</svg>