<?xml version="1.0" encoding="utf-8"?>
<svg version="1.1" xmlns:xlink="http://www.w3.org/1999/xlink" width="18px" height="20px" xmlns="http://www.w3.org/2000/svg">
  <g transform="matrix(1 0 0 1 -14 -12 )">
    <path d="M 0.278902893 9.20760647  C -0.11609171400000001 8.80575017  -0.0801831136 8.14816714  0.31481149399999997 7.74631085  L 6.41927361 1.86459598  C 7.71198324 0.622494709  9.39968747 -0.0350883188  11.195117500000002 0.00144407162  C 12.990547500000002 0.0379764621  14.6419841 0.805156662  15.8632356 2.12032272  C 17.1200366 3.39895638  17.8023 5.152511129999999  17.7304828 6.97913065  C 17.6586656 8.80575017  16.9404936 10.4862401  15.647784 11.7283414  L 8.78924126 18.3407041  C 7.81970904 19.2905462  6.59881662 19.7289349  5.342015589999999 19.7289349  C 4.01339737 19.7289349  2.68477914 19.1809491  1.7152469199999998 18.1580421  C -0.187908916 16.1122283  -0.11609171400000001 12.8973779  1.89478992 10.9611612  L 8.46606385 4.64105766  C 9.11241866 4.02000702  9.93831648 3.69121551  10.8360315 3.7277479  C 11.7337465 3.76428029  12.5596443 4.12960419  13.1700905 4.78718722  C 13.7805368 5.44477025  14.1033551 6.285015229999999  14.0678056 7.19832499  C 14.031897 8.11163475  13.672811 8.95187973  13.0260971 9.57293037  L 10.6564885 11.8379386  C 10.2255853 12.2397949  9.57923047 12.2397949  9.18423587 11.801406199999999  C 8.78924126 11.363017499999998  8.78924126 10.705434500000003  9.22014447 10.3035782  L 11.6260207 8.00203758  C 11.8773809 7.78284324  11.9851067 7.45405173  12.0210153 7.12526021  C 12.0210153 6.7964687  11.9132895 6.46767718  11.6978379 6.21195045  C 11.4823863 5.9562237200000006  11.1592089 5.846626539999999  10.8360315 5.81009415  C 10.512494999999998 5.81009415  10.1896767 5.91969133  9.93831648 6.13888567  L 3.33113395 12.4955216  C 2.14615013 13.628025699999998  2.11024153 15.52771  3.22340815 16.6967465  C 4.33657477 17.9023154  6.20382201 17.9388478  7.35289723 16.8063437  L 14.21144 10.193981  C 15.109155000000001 9.31720364  15.611875400000002 8.14816714  15.647784 6.90606587  C 15.6836926 5.66396459  15.2168808 4.45839571  14.390983 3.54508595  C 13.5291765 2.63177618  12.3801013 2.12032272  11.1592089 2.08379033  C 9.93831648 2.04725794  8.75333266 2.5221790099999994  7.85561764 3.36242399  L 1.75115552 9.24413886  C 1.32025231 9.64599515  0.6738975009999999 9.64599515  0.278902893 9.20760647  Z " fill-rule="nonzero" fill="#767676" stroke="none" transform="matrix(1 0 0 1 14 12 )" />
  </g>
</svg>