<?xml version="1.0" encoding="utf-8"?>
<svg version="1.1" xmlns:xlink="http://www.w3.org/1999/xlink" width="22px" height="16px" xmlns="http://www.w3.org/2000/svg">
  <g transform="matrix(1 0 0 1 -17 -82 )">
    <path d="M 18.946666666666665 15.573333333333338  L 3 15.573333333333338  C 1.826666666666668 15.573333333333338  0.8666666666666673 14.61333333333333  0.8666666666666673 13.439999999999998  L 0.8666666666666673 13.013333333333335  L 5.346666666666664 8.533333333333331  L 7.640000000000001 10.826666666666668  L 15.159999999999997 3.200000000000003  L 21.08 9.333333333333329  L 21.08 13.439999999999998  C 21.08 14.61333333333333  20.120000000000005 15.573333333333338  18.946666666666665 15.573333333333338  Z M 0.8666666666666673 3.200000000000003  C 0.8666666666666673 1.7066666666666634  2.039999999999999 0.5333333333333314  3.5333333333333314 0.5333333333333314  C 5.026666666666667 0.5333333333333314  6.199999999999999 1.7066666666666634  6.199999999999999 3.200000000000003  C 6.199999999999999 4.693333333333328  5.026666666666667 5.866666666666674  3.5333333333333314 5.866666666666674  C 2.039999999999999 5.866666666666674  0.8666666666666673 4.693333333333328  0.8666666666666673 3.200000000000003  Z " fill-rule="nonzero" fill="#222222" stroke="none" transform="matrix(1 0 0 1 17 82 )" />
  </g>
</svg>