<!-- Generator: Adobe Illustrator 19.2.0, SVG Export Plug-In  -->
<svg version="1.1"
	 xmlns="http://www.w3.org/2000/svg" xmlns:xlink="http://www.w3.org/1999/xlink" xmlns:a="http://ns.adobe.com/AdobeSVGViewerExtensions/3.0/"
	 x="0px" y="0px" width="22.8px" height="23.1px" viewBox="0 0 22.8 23.1" style="enable-background:new 0 0 22.8 23.1;"
	 xml:space="preserve">
<style type="text/css">
	.st0{fill:#EB7100;}
</style>
<defs>
</defs>
<g id="ic-pin_2_">
	<path id="Shape_2_" class="st0" d="M7.2,17.4l-5.3,5.3c-0.4,0.4-1.1,0.4-1.5,0c-0.4-0.4-0.4-1.1,0-1.5l5.3-5.3L3,13.2
		C1.7,12,1.7,9.9,3,8.7c0.2-0.2,0.3-0.3,0.5-0.4L3.9,8c1.6-1,3.6-1.1,5.2-0.4l2.1-2.1c-0.5-1.3-0.3-2.9,0.6-4.1
		c0.1-0.2,0.2-0.3,0.4-0.5c1.2-1.2,3.3-1.2,4.5,0l5.2,5.2c0.1,0.1,0.3,0.3,0.4,0.5c1,1.5,0.6,3.4-0.8,4.4c-1.2,0.8-2.8,1-4.1,0.6
		l-2.1,2.1c0.8,1.7,0.7,3.6-0.4,5.2l-0.2,0.4c-1,1.5-3,1.9-4.5,0.9c-0.2-0.1-0.4-0.3-0.5-0.4L7.2,17.4z"/>
</g>
</svg>
