<?xml version="1.0" encoding="utf-8"?>
<svg version="1.1" xmlns:xlink="http://www.w3.org/1999/xlink" width="12px" height="12px" xmlns="http://www.w3.org/2000/svg">
  <g transform="matrix(1 0 0 1 -104 -6 )">
    <path d="M 6 0.1875  C 9.2099296875 0.1875  11.8125 2.7910078125  11.8125 6  C 11.8125 9.2108671875  9.2099296875 11.8125  6 11.8125  C 2.7900703125 11.8125  0.1875 9.2108671875  0.1875 6  C 0.1875 2.7910078125  2.7900703125 0.1875  6 0.1875  Z M 8.887171875 4.499999999999999  C 8.887171875 3.1405781249999993  7.477054687500001 2.109374999999999  6.155976562499999 2.109375  C 4.8787031249999995 2.109375  4.0640624999999995 2.6474296875  3.424359374999999 3.603703125  C 3.3414843749999994 3.7275937500000005  3.3692109374999992 3.8946796875  3.4879921874999993 3.9847500000000005  L 4.30125 4.6013906250000005  C 4.4232421875 4.693898437500001  4.5970546875 4.6718906250000005  4.6918359375 4.551656250000001  C 5.1105234374999995 4.020609374999999  5.397609374999999 3.7126640625  6.034874999999999 3.7126640625  C 6.513679687499998 3.7126640625  7.105921874999998 4.0208203125  7.105921874999998 4.4851171875  C 7.105921874999998 4.8361171875  6.816164062499999 5.016375  6.343406249999998 5.2814296875  C 5.7920625 5.5905  5.0625 5.9751796875  5.0625 6.9375  L 5.0625 7.03125  C 5.0625 7.186570312500001  5.188429687499999 7.3125  5.34375 7.3125  L 6.65625 7.3125  C 6.811570312500001 7.3125  6.9375 7.186570312500001  6.9375 7.03125  L 6.9375 7.0000078125  C 6.9375 6.3329296875  8.887171875 6.30515625  8.887171875 4.499999999999999  Z M 7.078125 9  C 7.078125 8.4055078125  6.5944921875 7.921875  6 7.921875  C 5.4055078125 7.921875  4.921875 8.4055078125  4.921875 9  C 4.921875 9.594468749999999  5.4055078125 10.078125  6 10.078125  C 6.5944921875 10.078125  7.078125 9.594468749999999  7.078125 9  Z " fill-rule="nonzero" fill="#50007a" stroke="none" transform="matrix(1 0 0 1 104 6 )" />
  </g>
</svg>