<?xml version="1.0" encoding="utf-8"?>
<svg version="1.1" xmlns:xlink="http://www.w3.org/1999/xlink" width="18px" height="20px" xmlns="http://www.w3.org/2000/svg">
  <g transform="matrix(1 0 0 1 -66 -20 )">
    <path d="M 6.4412 17.5  C 6.4412 18.880859375  7.5872 20  9 20  C 10.412799999999999 20  11.558800000000002 18.880859375  11.558800000000002 17.5  L 6.4412 17.5  Z M 17.96 14.999999999999998  C 17.962000000000003 14.705078124999996  17.855600000000003 14.403515624999999  17.6156 14.151953124999999  C 16.8428 13.341015624999999  15.396799999999999 12.121093749999998  15.396799999999999 8.124999999999998  C 15.396799999999999 5.089843749999998  13.2176 2.6601562499999987  10.2792 2.064062499999999  L 10.2792 1.25  C 10.2792 0.5597656249999999  9.706399999999999 0  8.999999999999998 0  C 8.293599999999998 0  7.720799999999999 0.559765625  7.720799999999999 1.25  L 7.720799999999999 2.0640625000000004  C 4.782400000000001 2.66015625  2.6031999999999997 5.08984375  2.6031999999999997 8.125  C 2.6031999999999997 12.12109375  1.1571999999999998 13.341015624999999  0.38439999999999996 14.151953124999999  C 0.14439999999999997 14.403906249999999  0.03799999999999997 14.705078125  0.04 14.999999999999998  C 0.0444 15.640624999999996  0.5592 16.249999999999996  1.324 16  L 16.676000000000002 16  C 17.440800000000003 16.249999999999996  17.956000000000003 15.640624999999996  17.96 14.999999999999998  Z " fill-rule="nonzero" fill="#ffffff" stroke="none" transform="matrix(1 0 0 1 66 20 )" />
  </g>
</svg>