<svg id="Layer_1" data-name="Layer 1" xmlns="http://www.w3.org/2000/svg" viewBox="0 0 258.72 71.1"><defs><style>.cls-1{fill:#b9095b;}.cls-2{fill:#fff;}</style></defs><path class="cls-1" d="M44.27,698.76C62,683.88,80.21,676.32,84.9,681.9l7.5-6.29c-5.79-6.89-28.27,2.44-50.12,20.79S7.37,735.29,13.16,742.17l7.49-6.29C16,730.29,26.56,713.64,44.27,698.76Z" transform="translate(-11.79 -673.34)"/><path class="cls-1" d="M47.21,732.07a121,121,0,0,0,15.22-11,119.78,119.78,0,0,0,13.78-13.5,23.55,23.55,0,1,0-29,24.47Z" transform="translate(-11.79 -673.34)"/><path class="cls-1" d="M64.41,723.47c-4.06,3.42-8.15,6.52-12.15,9.26a23.46,23.46,0,0,0,23.75-20A156.54,156.54,0,0,1,64.41,723.47Z" transform="translate(-11.79 -673.34)"/><path class="cls-1" d="M61.29,719c-17.72,14.88-35.94,22.44-40.64,16.86l-7.49,6.29c5.79,6.89,28.27-2.43,50.11-20.79S98.18,682.5,92.4,675.61l-7.5,6.29C89.59,687.49,79,704.14,61.29,719Z" transform="translate(-11.79 -673.34)"/><path class="cls-2" d="M125.7,710.41v14.82h-4.09V710.87a5.39,5.39,0,0,0-5.48-5.52,5.7,5.7,0,0,0-5.75,5.75v14.13h-4.09V710.87a5.39,5.39,0,0,0-5.48-5.52A5.76,5.76,0,0,0,95,711.1v14.13H91v-23H94.7l.18,2.81a8.85,8.85,0,0,1,7-3.27,8.18,8.18,0,0,1,7.36,4.19,9.46,9.46,0,0,1,7.92-4.19A8.31,8.31,0,0,1,125.7,710.41Z" transform="translate(-11.79 -673.34)"/><path class="cls-2" d="M129.79,695.32a2.7,2.7,0,1,1,5.39,0,2.7,2.7,0,0,1-5.39,0Zm.65,6.9h4.05v23h-4.05Z" transform="translate(-11.79 -673.34)"/><path class="cls-2" d="M159.92,690.72v34.51h-3.63l-.18-3.31a9.53,9.53,0,0,1-7.69,3.77c-6.48,0-10.58-5.29-10.58-12s4.1-12,10.58-12a9.58,9.58,0,0,1,7.55,3.59V690.72ZM156,716.21v-5c-.88-3.4-3.59-5.89-6.9-5.89-4.51,0-7.23,3.73-7.23,8.38s2.72,8.32,7.23,8.32C152.38,722.05,155.09,719.62,156,716.21Z" transform="translate(-11.79 -673.34)"/><path class="cls-2" d="M164.15,722.15l2.12-2.77c1.15,1.66,4.37,2.9,7.08,3s5.07-1.15,5.07-3.31c0-2.35-2.67-3.09-5.62-4-3.49-1.1-7.5-2.3-7.5-6.58,0-4.09,4-6.72,8.47-6.72a13.72,13.72,0,0,1,8,2.58l-2.26,2.76a8.78,8.78,0,0,0-5-2.07c-2.35-.18-5,.83-5,3,0,2.34,2.58,3.12,5.39,3.95,3.59,1,7.68,2.16,7.68,6.76,0,4.1-3.86,7-8.93,7C169.86,725.69,165.86,724.17,164.15,722.15Z" transform="translate(-11.79 -673.34)"/><path class="cls-2" d="M208,713.73c0,6.67-4.1,12-10.58,12a9.55,9.55,0,0,1-7.5-3.54v14.58h-4V702.22h4v3.09a9.56,9.56,0,0,1,7.5-3.55C203.85,701.76,208,707.06,208,713.73Zm-4,0c0-4.65-2.76-8.38-7.27-8.38-3.31,0-6,2.49-6.85,5.89v5c.87,3.41,3.54,5.84,6.85,5.84C201.23,722.05,204,718.37,204,713.73Z" transform="translate(-11.79 -673.34)"/><path class="cls-2" d="M229.38,710.51v14.72h-3.59l-.23-3.27a13.32,13.32,0,0,1-8.51,3.73,6.8,6.8,0,0,1-7-7c0-4.1,3.13-7.73,11.18-6.4l4.19.69v-2.71c0-3.5-2.58-5-5.7-5a7,7,0,0,0-6.17,3.18l-2.8-2.48c1.74-2.53,4.78-4.15,9.15-4.15C225.15,701.76,229.38,704.57,229.38,710.51ZM218,722.05c2.67,0,5.25-1.51,7.41-3.49v-2.63l-3.77-.64c-5.8-1.06-7.45.92-7.45,3.17A3.48,3.48,0,0,0,218,722.05Z" transform="translate(-11.79 -673.34)"/><path class="cls-2" d="M231.73,713.73c0-6.86,4.09-12,10.85-12a9.77,9.77,0,0,1,5.94,1.85v4.09a7.6,7.6,0,0,0-5.52-2.49c-4.56,0-7.27,3.69-7.27,8.52s2.71,8.51,7.27,8.51a7.43,7.43,0,0,0,5.52-2.49v4a9.78,9.78,0,0,1-5.94,1.89C235.82,725.69,231.73,720.58,231.73,713.73Z" transform="translate(-11.79 -673.34)"/><path class="cls-2" d="M270.46,715.06H253.07c.41,4.23,2.85,7.09,7.13,7.09,2.76,0,4.51-1,6.35-3.82l2.85,2a10.05,10.05,0,0,1-9.34,5.39c-6.81,0-10.95-5.06-10.95-11.92s4.19-12,10.95-12c6.58,0,10.45,5,10.45,12A12.28,12.28,0,0,1,270.46,715.06Zm-17.3-3.17h13.67c-.42-4-2.76-6.63-6.67-6.63S253.76,707.93,253.16,711.89Z" transform="translate(-11.79 -673.34)"/></svg>