<?xml version="1.0" encoding="utf-8"?>
<svg version="1.1" xmlns:xlink="http://www.w3.org/1999/xlink" width="23px" height="24px" xmlns="http://www.w3.org/2000/svg">
  <g transform="matrix(1 0 0 1 -1102 -359 )">
    <path d="M 22.640625 12  C 22.640625 5.845703125  17.654296875 0.859375  11.5 0.859375  C 5.345703125 0.859375  0.359375 5.845703125  0.359375 12  C 0.359375 18.154296875  5.345703125 23.140625  11.5 23.140625  C 17.654296875 23.140625  22.640625 18.154296875  22.640625 12  Z M 14.015625 12  L 16.962500000000002 14.924414062499999  C 17.1736328125 15.135546875000003  17.1736328125 15.476953125000001  16.962500000000002 15.688085937499999  L 15.18359375 17.462500000000002  C 14.972460937500001 17.6736328125  14.631054687499999 17.6736328125  14.419921875 17.462500000000002  L 11.5 14.515625  L 8.5755859375 17.462500000000002  C 8.364453125 17.6736328125  8.023046875 17.6736328125  7.8119140625000005 17.462500000000002  L 6.0375000000000005 15.68359375  C 5.826367187500001 15.472460937500003  5.826367187500001 15.131054687499997  6.0375000000000005 14.919921875  L 8.984375 12  L 6.0375000000000005 9.075585937500001  C 5.826367187500001 8.864453125  5.826367187500001 8.523046875  6.0375000000000005 8.311914062500001  L 7.81640625 6.533007812499999  C 8.027539062499999 6.321875000000002  8.368945312500001 6.321875000000002  8.580078125 6.533007812499999  L 11.5 9.484375  L 14.4244140625 6.537500000000001  C 14.635546875000001 6.326367187500001  14.976953125000001 6.326367187500001  15.1880859375 6.537500000000001  L 16.9669921875 8.31640625  C 17.178125 8.527539062499999  17.178125 8.868945312500001  16.9669921875 9.080078125  L 14.015625 12  Z " fill-rule="nonzero" fill="#ffffff" stroke="none" transform="matrix(1 0 0 1 1102 359 )" />
  </g>
</svg>